<svg aria-hidden="true" style="width:0;height:0;position:absolute;overflow:hidden" xmlns="http://www.w3.org/2000/svg"><defs><symbol id="icon-arrow" viewBox="0 0 82 32"><path d="M81.414 17.414a2 2 0 0 0 0-2.828L68.686 1.858a2 2 0 1 0-2.828 2.828L77.172 16 65.858 27.314a2 2 0 1 0 2.828 2.828l12.728-12.728zM0 18h80v-4H0v4z"/></symbol><symbol id="icon-ice-crema" viewBox="0 0 32 32"><path d="M16.108.107c.08.215.241 1.252.241 1.573v.011c0 .818-.318 1.561-.838 2.114l.001-.002c-.449.482-.898.749-1.975 1.185-1.198.489-1.694.783-2.256 1.339-.569.569-.904 1.191-1.024 1.922-.134.796 0 1.358.408 1.68l.207.16-.328.208c-.662.436-1.867 1.46-2.075 1.774-.402.603-.362 1.164.093 1.393l.214.107-.241.228c-.362.341-.436.576-.382 1.191.034.409.02.63-.073.964-.114.436-.114.442.033.75.148.301.563.683.938.844.18.08.187.107.228.723.02.356.053 1.486.08 2.517.02 1.031.068 1.975.107 2.089.034.12.161.281.276.361.388.268.656.556.829.891.195.382.409 1.319 1.058 4.559l.455 2.276.282.268c.535.529 1.56.77 3.247.77 1.693 0 2.704-.235 3.24-.764l.288-.274.414-2.109c.916-4.612.997-4.867 1.714-5.436.22-.181.436-.402.475-.502.047-.114.094-.991.127-2.316.027-1.178.068-2.343.094-2.591l.04-.448.436-.329c.548-.421.763-.803.763-1.392-.006-.696-.462-1.46-1.292-2.142l-.396-.321.195-.276c.81-1.117.301-2.664-1.205-3.694l-.455-.315.167-.174c.743-.796.864-3.173.241-4.827-.374-.984-1.232-2.055-2.283-2.845-.514-.388-1.934-1.245-2.06-1.245-.027 0-.027.047-.006.107zm1.928 2.337c.356.348.783.823.951 1.064.997 1.393 1.252 3.14.649 4.426-.241.522-.964 1.298-1.634 1.76-1.024.71-3.327 1.902-4.933 2.557-2.584 1.052-4.084 1.252-4.258.563-.068-.261.127-.468.951-1.018.742-.508 4.076-2.986 4.136-3.086.02-.027-.321.127-.749.341-1.452.737-2.142.596-2.108-.428.02-.743.556-1.587 1.298-2.068.188-.12.771-.388 1.307-.603 1.76-.709 2.296-1.071 2.892-1.961.356-.529.743-1.507.77-1.922.007-.147.034-.261.053-.261s.322.288.676.636zm1.827 7.606c.489.274.997.743 1.218 1.111.389.662.188 1.325-.649 2.169-.91.924-2.463 1.808-4.171 2.37-1.573.516-3.079.756-5.236.83l-1.339.047.871.053c1.124.074 3.3.007 4.143-.127 2.243-.356 4.151-1.065 5.516-2.042.308-.221.629-.402.716-.402.221 0 1.185.924 1.38 1.312.107.221.133.382.114.596-.1.891-1.186 1.366-3.803 1.68-3.2.382-7.384.007-9.172-.816-.844-.388-.984-.61-.77-1.198.067-.188.08-.409.053-.724-.034-.415-.027-.468.12-.622.335-.362.898-.569 2.96-1.092.723-.187 1.707-.482 2.175-.656 1.138-.415 3.274-1.493 4.264-2.156.931-.616 1.065-.643 1.607-.334zm-8.891 8.194c1.406.409 2.652.529 4.968.482 1.74-.033 2.812-.14 4.357-.415.316-.053.589-.1.623-.1.074 0 .053 2.571-.027 3.247-.087.716-.282 1.272-.489 1.406-.214.14-1.285.288-2.718.368-2.939.16-5.958 0-6.895-.375-.508-.207-.563-.476-.569-2.959 0-1.653.013-1.881.1-1.847.053.02.348.107.649.194zm1.587 5.69c.482.06 1.004.12 1.164.14l.289.034-.255.281c-.328.355-.83 1.064-1.011 1.426-.207.415-.275.442-.582.275l-.261-.148-.147-.91a23.34 23.34 0 0 0-.216-1.217l.028.165c-.06-.173-.121-.173.99-.046zm7.137-.074c0 .013-.034.187-.068.382-.04.2-.207 1.292-.374 2.429-.341 2.377-.569 3.494-.777 3.869-.288.502-.978.796-2.095.891-.436.034-1.748-.053-1.821-.121-.053-.06 1.098-1.486 1.279-1.58.167-.094.213-.08.782.213.663.349.998.403.998.181s-.174-.436-.603-.729c-.395-.282-.535-.443-.535-.63 0-.053.194-.355.428-.669s.575-.817.749-1.118l.329-.542.3.041c.609.087.77.08.75-.053-.013-.068-.127-.261-.255-.422-.127-.167-.228-.335-.228-.368 0-.127.622-1.299.824-1.547.174-.214.315-.322.315-.228zm-4.184.536c.334.221 1.593 1.313 1.673 1.446.034.06-1.258 2.082-1.513 2.37-.027.034-.167-.033-.308-.14a20.117 20.117 0 0 0-1.08-.752l-.085-.052-.904-.596.542-.917c.964-1.613.944-1.587 1.151-1.587.107 0 .341.1.523.228zm2.537.24c-.235.288-.428.469-.508.469-.174 0-.456-.154-.931-.502l-.396-.288.791-.047c.348-.013.665-.034.98-.065l-.064.005c.536-.087.536-.08.128.428zm-5.061 3.221c.616.241 1.66.81 1.962 1.065.214.173.214.187.127.401a6.654 6.654 0 0 1-.43.741l.015-.024a10.9 10.9 0 0 0-.417.682l-.032.061c-.213.415-.281.449-.723.329-.476-.141-.729-.382-.863-.818-.181-.609-.469-2.329-.436-2.597.013-.1.294-.04.796.161z"/></symbol><symbol id="icon-cow" viewBox="0 0 32 32"><path d="M6.169.192c-.262.226-1.008 1.781-1.276 2.631-.318 1.052-.427 1.842-.384 2.932.058 1.556.449 2.736 1.31 3.969.225.323.406.601.406.624 0 .015-.138.029-.311.029-.747 0-2.144.249-3.215.572-1.7.511-2.7 1.405-2.7 2.405 0 .354.318.955.659 1.262.659.595 2.1 1.158 3.649 1.428.536.098 2.129.263 2.484.271.065 0 .087.346.087 1.481 0 .977.036 1.736.108 2.202.26 1.668 1.071 3.436 2.142 4.683l.37.428-.246.399c-.362.564-.5.992-.542 1.631-.109 1.533.846 2.893 2.693 3.849 3.517 1.826 8.984 1.111 11.033-1.444.999-1.248 1.115-2.676.325-3.969l-.246-.398.442-.533c.826-.993 1.361-1.985 1.766-3.24.34-1.068.471-2.098.471-3.729 0-.744.021-1.36.058-1.36.333-.008 1.933-.18 2.44-.271 1.556-.27 2.969-.827 3.649-1.428.34-.308.659-.909.659-1.263 0-1.113-1.129-2.014-3.229-2.556-.687-.18-1.983-.398-2.613-.436l-.297-.023.326-.451c.405-.549.912-1.616 1.108-2.316.55-2.021.21-4.374-.97-6.622-.493-.932-.834-1.149-1.231-.782-.152.144-.218.339-.362 1.045-.449 2.248-1.282 4.029-2.498 5.345l-.536.587H10.245l-.478-.519C8.58 5.317 7.718 3.468 7.269 1.213 7.124.506 7.059.312 6.907.169c-.239-.218-.471-.211-.738.022zm.926 4.458c.384.842.862 1.631 1.426 2.36l.449.579-.47.354a4.73 4.73 0 0 0-1.173 1.368l-.137.248-.348-.474C5.654 7.446 5.358 5.44 5.988 3.357c.304-1.007.297-.999.572-.127.131.42.377 1.06.536 1.42zM25.94 3.064c.262.728.414 1.569.414 2.445l-.001.093v-.005c0 1.367-.362 2.524-1.122 3.563l-.34.466-.253-.428a4.538 4.538 0 0 0-1.254-1.382l-.013-.009c-.196-.127-.347-.255-.347-.27 0-.022.137-.196.311-.383.804-.895 1.665-2.503 2.092-3.886.13-.428.26-.782.282-.782s.131.263.231.58zm-3.699 5.494c.804.338 1.571 1.308 1.694 2.127.065.451.217.737.412.782.087.014.688.068 1.332.112 2.287.151 4.09.64 4.858 1.308.355.316.318.578-.108.901-.854.647-2.7 1.135-4.583 1.218-1.245.053-1.506.091-1.673.263-.123.128-.137.263-.137 1.624 0 1.842-.094 2.901-.326 3.758-.325 1.164-.97 2.405-1.723 3.284l-.311.361-.644-.383a7.832 7.832 0 0 0-2.335-.958l-.054-.011c-2.744-.655-5.778-.256-7.819 1.029l-.471.3-.297-.354c-.405-.473-1.043-1.488-1.296-2.06-.557-1.292-.724-2.345-.724-4.66 0-2.248.116-2.083-1.549-2.172-2.129-.113-3.751-.496-4.772-1.143-.753-.48-.629-.909.42-1.413 1.006-.488 2.388-.781 4.308-.901 1.492-.098 1.527-.12 1.665-.842.203-1.09 1.006-1.992 2.02-2.277.253-.076 1.672-.091 6.016-.083l5.684.015.412.172zm-4.069 15.559c1.774.436 3.099 1.248 3.671 2.255.138.233.196.474.224.842.029.459.008.572-.166.948-.804 1.707-3.757 2.834-6.762 2.578-3.612-.3-5.988-2.315-5.053-4.292.507-1.068 2.222-2.09 4.032-2.391.297-.044.594-.098.652-.112s.71-.015 1.449 0c1.005.022 1.491.068 1.954.172z"/><path d="M10.99 12.321c-.45.151-.754.347-1.159.752-.355.338-.383.736-.086.977.276.225.535.196.868-.098.42-.368.746-.518 1.151-.518.405-.008.716.135 1.151.518.333.293.594.323.868.098.145-.12.188-.218.188-.444 0-.232-.051-.338-.304-.593-.716-.721-1.781-.999-2.679-.692zm8.441-.008c-.462.173-1.057.564-1.295.857-.232.286-.24.609 0 .85.238.255.528.24.876-.045.854-.707 1.492-.729 2.281-.076.203.173.434.308.507.308.355 0 .644-.316.644-.692 0-.24-.601-.796-1.144-1.06-.601-.293-1.317-.346-1.868-.142zM12.04 26.224c-.21.203-.283.496-.174.729.08.187.203.263.702.398.225.06.319.135.398.323.101.249.109.249.667.271l.557.022v-.211c-.007-.3-.174-.736-.391-1.036-.253-.347-.695-.572-1.195-.617-.34-.03-.427-.015-.564.121zm6.914-.053c-.362.098-.884.587-1.028.969a2.533 2.533 0 0 0-.137.677v.008c-.015.323.014.398.188.556.427.376.992.083.992-.518 0-.293.217-.496.601-.571.405-.076.551-.241.557-.624 0-.504-.449-.699-1.173-.496z"/></symbol><symbol id="icon-weight" viewBox="0 0 32 32"><path d="M14.178.547c-3.974.589-7.247 2.796-8.452 5.685-.384.913-.487 1.474-.487 2.573.007.812.036 1.114.163 1.552.258.862.443 1.301.827 1.92l.356.574-.4.489c-3.154 3.924-3.501 9.444-.871 13.793.982 1.632 2.586 3.235 4.151 4.169l.466.273 12.743-.108.302-.165c1.057-.596 2.548-1.926 3.383-3.004a12.51 12.51 0 0 0 2.413-5.546l.01-.074c.118-.74.118-2.933-.007-3.63-.377-2.148-1.182-3.988-2.452-5.62-.244-.309-.436-.568-.436-.589 0-.014.133-.237.288-.489a7.623 7.623 0 0 0 .85-1.907l.014-.055c.199-.719.199-2.516 0-3.235-.709-2.551-2.836-4.679-5.843-5.851-.843-.331-2.284-.683-3.214-.797-.864-.1-2.999-.08-3.804.043zm4.498 1.171c3.945.769 6.834 3.184 7.365 6.16.118.668.044 1.804-.155 2.436-.2.618-.569 1.344-1.004 1.963-.178.252-.325.539-.325.632s.155.338.377.582c1.846 2.049 2.821 4.614 2.821 7.388-.007 3.156-1.219 5.923-3.553 8.093-.399.373-.968.841-1.271 1.042l-.554.373-12.211.051-.473-.302c-1.714-1.113-3.258-2.953-4.115-4.908-1.078-2.472-1.189-5.34-.31-7.913.466-1.337 1.086-2.429 2.031-3.58.385-.46.562-.733.562-.862 0-.108-.192-.46-.444-.827-.886-1.287-1.248-2.717-1.034-4.068.222-1.365.842-2.487 1.987-3.6 1.493-1.445 3.576-2.402 6.021-2.761 1.012-.151 3.25-.093 4.284.1z"/><path d="M14.509 2.983c-3.029.496-5.4 2.178-6.176 4.385-.178.496-.206.69-.206 1.401s.029.907.206 1.402c.111.316.318.756.459.978.384.618.554.64 1.315.18a11.719 11.719 0 0 1 3.727-1.474l.078-.014c.916-.187 2.674-.258 3.671-.143 1.558.18 3.251.74 4.602 1.538.385.222.776.409.872.409.562 0 1.278-1.617 1.278-2.875 0-2.796-2.675-5.189-6.464-5.786-.805-.129-2.586-.129-3.361 0zm3.656 1.15c1.271.273 2.438.791 3.317 1.474 1.182.913 1.817 2.185 1.714 3.413-.037.489-.222 1.15-.332 1.222-.029.014-.444-.158-.916-.388a14.138 14.138 0 0 0-3.131-1.081l-.097-.018c-.687-.143-.975-.165-2.512-.158-1.514 0-1.831.022-2.489.158a13.26 13.26 0 0 0-3.195 1.099l.078-.035c-1.101.524-1.042.532-1.242-.116-.258-.84-.096-1.955.407-2.796.266-.445.996-1.186 1.529-1.552 1.012-.698 1.899-1.013 3.804-1.359.391-.071 2.563.029 3.065.137zm-1.202 9.271c-.207.26-.207.504.007.712.14.137.281.172.791.209a6.489 6.489 0 0 1 2.815.865l-.031-.017c.606.359 1.529 1.229 1.943 1.854.613.898 1.034 2.185 1.034 3.134 0 .331.03.431.185.574.236.237.547.237.776 0 .163-.165.169-.208.125-.912-.207-3.479-3.184-6.382-6.744-6.578l-.74-.043-.162.202z"/></symbol><symbol id="logo" viewBox="0 0 40 38"><path d="M20.406 16.755c1.916-5.185-2.052-8.023-4.681-9.888-.503-.381-1.006-.737-1.413-1.063a4.958 4.958 0 0 1-1.584-5.12.54.54 0 0 0-.417-.673.544.544 0 0 0-.292.021 8.879 8.879 0 0 0-2.438 1.45A5.785 5.785 0 0 0 7.323 6.05c-.496.39-.934.847-1.302 1.358a4.975 4.975 0 0 0-.96 3.184 6.306 6.306 0 0 0-1.916 5.922 1.706 1.706 0 0 0-.761 1.922 1.705 1.705 0 0 0 1.656 1.242h.035v2.948a1.127 1.127 0 0 0 1.131 1.129h.88L7.52 36.14a1.123 1.123 0 0 0 1.121 1.003h5.963a1.138 1.138 0 0 0 1.127-1.003l1.433-12.385h.88a1.133 1.133 0 0 0 1.131-1.128v-2.949h.035a1.717 1.717 0 0 0 1.587-2.37c-.086-.21-.214-.399-.375-.558l-.015.005ZM7.499 7.348c.724 2.713 3.52 3.78 6.069 4.734a.548.548 0 1 0 .387-1.003C11.21 10.04 8.62 9.073 8.425 6.3a4.627 4.627 0 0 1 1.834-3.976c.383-.317.793-.6 1.227-.842a6.508 6.508 0 0 0 0 1.043 5.93 5.93 0 0 0 2.122 4.126c.417.356.935.722 1.508 1.113 1.323.948 2.826 2.006 3.781 3.44a5.351 5.351 0 0 1 .549 5.09h-2.222c-4.581 0-9.846-1.264-10.886-4.804a4.05 4.05 0 0 1 1.186-4.117L7.5 7.348Zm4.123 17.094 1.68 1.674-1.68 1.675-1.68-1.685 1.68-1.664Zm3.851 4.397-1.387 1.384-1.68-1.675 1.68-1.67 1.458 1.45-.07.511Zm-3.851 3.841-1.68-1.675 1.68-1.674 1.68 1.674-1.68 1.675Zm-.77-4.122-1.679 1.675-1.397-1.394-.06-.501 1.457-1.45 1.68 1.67ZM8.4 31.005l-.337.336-.085-.762.422.426Zm-.176 1.715.95-.948 1.846 1.856c.009.037.02.074.035.11H8.339l-.116-1.018Zm5.853-.948.95.948-.116 1.003h-2.79l1.956-1.95Zm1.106-.43-.337-.337.427-.426-.09.762Zm.502-4.383-.84-.853 1.067-1.063-.226 1.916Zm-1.613-1.615-1.594-1.584h3.187l-1.593 1.584Zm-4.903 0L7.574 23.76h3.188l-1.594 1.584Zm5.43 10.71H8.64a.04.04 0 0 1-.035-.035l-.14-1.203h6.315l-.136 1.203a.04.04 0 0 1-.04.035h-.006Zm4.611-17.469h-1.75a.55.55 0 0 0-.6.544.546.546 0 0 0 .6.544h.624v2.949a.04.04 0 0 1-.04.035H5.186a.04.04 0 0 1-.04-.035v-2.949h9.96a.548.548 0 0 0 .354-.911.548.548 0 0 0-.354-.177H4.045a.626.626 0 0 1-.68-.62.62.62 0 0 1 .68-.619h1.141a.549.549 0 0 0 .496-.544.546.546 0 0 0-.496-.543H4.181a5.36 5.36 0 0 1 1.096-4.363c.352 1.093 1.257 2.587 3.52 3.776 2.126 1.108 4.942 1.674 8.366 1.674h2.011a.626.626 0 0 1 .626.369.62.62 0 0 1-.626.87h.035ZM23.582 33.715l-.406.623.009.005.398-.628Zm4.372.21.744-.016-.02-.86-.848.143.125.733Zm.051 2.288.19.72.567-.15-.013-.586-.744.016Zm-5.737.11.167-.726h-.005l-.162.725Zm-2.832-1.264.48-.568-.48.568Zm-1.024-2.325.743.004v-.004h-.743Zm.355-1.626-.667-.329v.002l.667.327Zm2.28-1.947.265.696.002-.001-.266-.695Zm7.307-.189.741.058.05-.628-.612-.151-.179.721Zm-.182 2.332-.138.73.815.155.065-.828-.742-.057Zm-1.982-.954c-1.116 0-2.055.119-2.74.42-.351.154-.67.372-.903.679a1.75 1.75 0 0 0-.355 1.075h1.488c0-.087.02-.136.052-.177.039-.05.126-.131.317-.215.4-.176 1.088-.295 2.14-.295v-1.488Zm-3.998 2.174c0 .765.343 1.396.985 1.814l.811-1.246c-.22-.144-.308-.307-.308-.568h-1.488Zm.993 1.82c.607.384 1.409.529 2.308.529v-1.488c-.777 0-1.249-.131-1.513-.298l-.795 1.256Zm2.308.529c.882 0 1.744-.072 2.586-.214l-.249-1.467a13.94 13.94 0 0 1-2.337.193v1.488Zm1.718-.931.05 2.288 1.488-.033-.051-2.288-1.487.033Zm.605 1.552c-.85.224-1.788.339-2.817.339v1.487c1.14 0 2.206-.127 3.196-.388l-.379-1.438ZM25 35.833c-1.05 0-1.9-.083-2.564-.236l-.334 1.45c.809.186 1.78.273 2.898.273v-1.487Zm-2.569-.237c-.71-.158-1.222-.327-1.564-.494l-.653 1.336c.491.24 1.13.44 1.893.61l.324-1.452Zm-1.564-.494a4.533 4.533 0 0 1-.95-.61l-.962 1.134c.372.315.793.585 1.26.812l.652-1.336Zm-.95-.611c-.506-.428-.765-.986-.76-1.753l-1.488-.007c-.006 1.17.418 2.16 1.288 2.895l.96-1.136Zm-.76-1.757c0-.5.097-.928.28-1.3L18.1 30.78a4.39 4.39 0 0 0-.432 1.954h1.487Zm.279-1.298c.338-.688.936-1.222 1.877-1.58l-.528-1.39c-1.228.466-2.15 1.23-2.684 2.313l1.335.657Zm1.88-1.58c.989-.38 2.093-.576 3.32-.576v-1.487c-1.387 0-2.674.221-3.854.674l.534 1.389Zm3.32-.576c1.252 0 2.431.14 3.54.414l.358-1.443a16.144 16.144 0 0 0-3.897-.458v1.488Zm2.977-.365-.181 2.331 1.483.116.181-2.332-1.482-.115Zm.699 1.658a11.504 11.504 0 0 0-2.121-.224v1.488c.523 0 1.136.063 1.844.197l.277-1.46Zm7.256 1.188-.004.744.756.004-.008-.756-.744.008Zm-.32-.966-.506.545.007.006.5-.55Zm-1.851.073.515.537.005-.006-.52-.531Zm-.45.879-.734-.12-.142.859.871.005.004-.744Zm5.468 3.965.45.593.267-.203.025-.334-.742-.056Zm-1.605.596-.16-.727-.004.001.164.726Zm-5.578-.204-.253.7.006.002.247-.702Zm-1.27-.675-.462.583.009.007.452-.59Zm-.85-1.068-.667.33.002.003.665-.333Zm.871-4.51.495.556-.495-.556Zm6.798-.806.297-.682-.007-.003-.29.685Zm1.706 1.569-.668.325.002.004.666-.33Zm.291 1.3.742.054.002-.027v-.027h-.744Zm-.087 1.198-.004.744.695.003.05-.693-.741-.054Zm-5.89-.029.004-.744-.97-.004.247.938.719-.19Zm.843 1.039-.367.647.003.002.363-.65Zm4.517-.255v-.743h-.149l-.137.057.286.686Zm.392 0 .742.056.06-.8h-.802v.744Zm-2.241-2.114c-.006-.538-.13-1.115-.564-1.509l-1 1.102c-.008-.008.01.002.03.066.023.068.044.182.046.357l1.488-.016Zm-.557-1.503c-.39-.362-.903-.482-1.407-.482v1.488c.29 0 .378.07.395.084l1.012-1.09Zm-1.407-.482c-.554 0-1.069.174-1.472.569l1.041 1.062c.081-.08.2-.143.43-.143v-1.488Zm-1.467.563a2.268 2.268 0 0 0-.669 1.295l1.468.241a.783.783 0 0 1 .232-.463l-1.03-1.073Zm.061 2.16 2.622.014.008-1.487-2.622-.015-.008 1.487Zm5.024 2.629c-.163.123-.561.295-1.316.461l.32 1.453c.785-.173 1.457-.398 1.894-.73l-.898-1.184Zm-1.32.462a9.41 9.41 0 0 1-2.08.243v1.488c.786 0 1.59-.095 2.408-.28l-.328-1.45Zm-2.08.243c-.701 0-1.278-.033-1.738-.095l-.199 1.474c.547.074 1.195.109 1.937.109v-1.488Zm-1.738-.095c-.452-.06-.9-.17-1.348-.327l-.495 1.403c.54.19 1.089.324 1.644.398l.199-1.474Zm-1.342-.325a3.975 3.975 0 0 1-1.072-.566l-.905 1.18c.423.325.917.584 1.47.784l.507-1.398Zm-1.063-.56a2.37 2.37 0 0 1-.646-.816l-1.33.665c.261.524.61.968 1.053 1.318l.923-1.166Zm-.645-.813c-.156-.317-.25-.724-.25-1.247H28.04c0 .698.125 1.341.404 1.906l1.333-.66Zm-.25-1.247c0-.523.095-.985.273-1.396l-1.364-.592a4.947 4.947 0 0 0-.396 1.988h1.488Zm.273-1.396c.188-.432.417-.751.677-.982l-.99-1.111c-.447.398-.793.907-1.051 1.501l1.364.592Zm.677-.983c.8-.712 2.019-1.125 3.775-1.125v-1.488c-1.97 0-3.598.463-4.765 1.503l.99 1.11Zm3.775-1.125c.789 0 1.532.15 2.237.449l.581-1.37a7.149 7.149 0 0 0-2.818-.567v1.488Zm2.23.446c.659.287 1.084.694 1.336 1.212l1.337-.65c-.426-.877-1.138-1.515-2.078-1.926l-.595 1.364Zm1.338 1.216c.139.281.213.6.213.97h1.488c0-.578-.12-1.125-.368-1.628l-1.333.658Zm.215.917-.087 1.198 1.484.108.087-1.198-1.484-.108Zm.659.508-5.89-.029-.008 1.488 5.89.029.008-1.488Zm-6.613.905c.174.659.599 1.159 1.196 1.496l.731-1.295c-.294-.166-.43-.359-.489-.58l-1.438.379Zm1.198 1.498c.604.337 1.358.472 2.2.472v-1.487c-.706 0-1.176-.117-1.474-.284l-.726 1.299Zm2.2.472c.905 0 1.899-.245 2.967-.689l-.572-1.373c-.956.398-1.75.575-2.394.575v1.487Zm2.68-.632h.393v-1.487h-.392v1.487Zm-.349-.799-.138 1.845 1.484.11.138-1.844-1.484-.111Z"/></symbol><symbol id="burger" viewBox="0 0 32 32"><path d="M26.733 14H5.267c-.7 0-1.267.425-1.267.95v.1c0 .525.567.95 1.267.95h21.466c.7 0 1.267-.425 1.267-.95v-.1c0-.525-.567-.95-1.267-.95ZM26.733 20H5.267c-.7 0-1.267.425-1.267.95v.1c0 .525.567.95 1.267.95h21.466c.7 0 1.267-.425 1.267-.95v-.1c0-.525-.567-.95-1.267-.95ZM26.733 8H5.267C4.567 8 4 8.425 4 8.95v.1c0 .525.567.95 1.267.95h21.466c.7 0 1.267-.425 1.267-.95v-.1c0-.525-.567-.95-1.267-.95Z"/></symbol><symbol id="arrow" viewBox="0 0 41 16"><path d="M40.707 8.707a1 1 0 0 0 0-1.414L34.343.929a1 1 0 1 0-1.414 1.414L38.586 8l-5.657 5.657a1 1 0 0 0 1.414 1.414l6.364-6.364ZM0 9h40V7H0v2Z"/></symbol><symbol id="close" viewBox="0 0 32 32"><path d="M23.884 6.706 16 14.59 8.116 6.706a.998.998 0 0 0-1.41 1.41L14.586 16l-7.882 7.882a.997.997 0 1 0 1.41 1.412L16 17.412l7.884 7.884a.998.998 0 0 0 1.41-1.41l-7.884-7.884 7.884-7.886a.997.997 0 1 0-1.41-1.412v.002Z"/></symbol><symbol id="close-modal" viewBox="0 0 20 20"><path d="m10.783 10 4.606-4.606a.556.556 0 0 0-.784-.783L10 9.217 5.394 4.606a.558.558 0 0 0-.789.788L9.216 10l-4.61 4.605a.556.556 0 1 0 .783.784l4.61-4.606 4.606 4.606a.556.556 0 0 0 .784-.784L10.783 10Z"/></symbol><symbol id="single-right" viewBox="0 0 12 12"><path d="M3.97 1.227a.75.75 0 0 0 0 1.06L7.682 6 3.97 9.713a.75.75 0 0 0 1.06 1.06L9.273 6.53a.75.75 0 0 0 0-1.06L5.03 1.227a.75.75 0 0 0-1.06 0Z"/></symbol><symbol id="icon-about-button-arrow" viewBox="0 0 32 32"><path d="M10.587 3.272c-.361.362-.585.861-.585 1.413s.223 1.051.585 1.413l9.899 9.901-9.899 9.899a2 2 0 0 0 2.827 2.829l11.314-11.314c.361-.362.585-.861.585-1.413s-.224-1.052-.585-1.413L13.413 3.272c-.362-.361-.861-.585-1.413-.585s-1.052.224-1.413.585z"/></symbol><symbol id="cow" viewBox="0 0 36 36"><path d="M6.94.216C6.645.47 5.806 2.22 5.505 3.176c-.358 1.184-.48 2.072-.432 3.298.065 1.75.505 3.078 1.474 4.465.253.363.457.676.457.702 0 .017-.155.033-.35.033-.84 0-2.412.28-3.617.643C1.124 12.892 0 13.898 0 15.023c0 .398.358 1.074.741 1.42.741.669 2.362 1.303 4.105 1.607.603.11 2.395.296 2.794.305.073 0 .098.389.098 1.666 0 1.099.04 1.953.122 2.477.293 1.877 1.205 3.865 2.41 5.268l.416.482-.277.449c-.407.634-.562 1.116-.61 1.835-.123 1.725.952 3.255 3.03 4.33 3.957 2.054 10.107 1.25 12.412-1.624 1.124-1.404 1.254-3.01.366-4.465l-.277-.448.497-.6c.929-1.117 1.531-2.233 1.987-3.645.383-1.201.53-2.36.53-4.195 0-.837.024-1.53.065-1.53.375-.009 2.175-.203 2.745-.305 1.751-.304 3.34-.93 4.105-1.606.383-.347.741-1.023.741-1.421 0-1.252-1.27-2.266-3.633-2.875-.773-.203-2.231-.448-2.94-.49l-.334-.026.367-.507c.456-.618 1.026-1.818 1.246-2.605.619-2.274.236-4.921-1.091-7.45C29.06.022 28.677-.223 28.23.19c-.171.162-.245.381-.407 1.176-.505 2.529-1.442 4.533-2.81 6.013l-.603.66H11.525l-.538-.584c-1.335-1.472-2.305-3.552-2.81-6.089C8.014.571 7.941.352 7.77.191c-.269-.245-.53-.237-.83.025Zm1.042 5.015c.432.947.97 1.835 1.604 2.655l.505.651-.529.398c-.497.38-.961.921-1.32 1.539l-.154.279-.391-.533c-1.336-1.844-1.67-4.101-.961-6.444.342-1.133.334-1.124.643-.143.147.473.424 1.192.603 1.598Zm21.2-1.784a8.358 8.358 0 0 1 .465 2.85c0 1.538-.407 2.84-1.262 4.008l-.383.524-.285-.482a5.064 5.064 0 0 0-1.426-1.565c-.22-.143-.39-.287-.39-.304 0-.025.154-.22.35-.431.904-1.007 1.873-2.816 2.354-4.372.146-.482.293-.88.317-.88.025 0 .147.296.26.652Zm-4.161 6.181c.904.38 1.767 1.471 1.906 2.393.073.507.244.829.464.88.098.016.774.076 1.499.126 2.573.17 4.601.72 5.465 1.472.399.355.358.65-.122 1.014-.961.728-3.038 1.277-5.156 1.37-1.401.06-1.694.102-1.882.296-.138.144-.154.296-.154 1.827 0 2.072-.106 3.264-.367 4.228-.366 1.31-1.091 2.706-1.938 3.695l-.35.406-.725-.431a8.988 8.988 0 0 0-2.688-1.09c-3.087-.737-6.5-.288-8.796 1.158l-.53.338-.334-.398c-.456-.532-1.173-1.674-1.458-2.317-.627-1.454-.814-2.638-.814-5.242 0-2.529.13-2.343-1.743-2.444-2.395-.127-4.22-.558-5.368-1.286-.847-.54-.708-1.023.473-1.59 1.132-.549 2.687-.879 4.846-1.014 1.678-.11 1.718-.135 1.873-.947.228-1.226 1.132-2.241 2.273-2.562.285-.085 1.881-.102 6.768-.093l6.394.017.464.194Zm-4.578 17.504c1.996.49 3.486 1.404 4.13 2.537.155.262.22.533.252.947.033.516.009.643-.187 1.066-.904 1.92-4.227 3.188-7.607 2.9-4.064-.338-6.736-2.604-5.685-4.828.57-1.201 2.5-2.351 4.536-2.69.334-.05.668-.11.733-.126.066-.017.799-.017 1.63 0 1.131.025 1.677.076 2.198.194Z" fill="#131313"/><path d="M12.364 13.861c-.506.17-.848.39-1.304.846-.399.38-.431.828-.097 1.099.31.253.602.22.977-.11.472-.414.839-.583 1.295-.583.456-.009.806.152 1.295.583.375.33.668.363.977.11.163-.135.212-.245.212-.5 0-.261-.057-.38-.342-.667-.806-.811-2.004-1.124-3.014-.778ZM21.86 13.852c-.52.195-1.189.635-1.457.964-.261.322-.27.685 0 .956.268.287.594.27.985-.051.961-.795 1.678-.82 2.566-.085.228.195.488.347.57.347.399 0 .725-.355.725-.778 0-.27-.676-.896-1.287-1.192-.676-.33-1.482-.389-2.101-.16ZM13.545 29.502c-.236.228-.318.558-.196.82.09.21.228.296.79.448.253.067.359.152.448.363.114.28.123.28.75.305l.627.025v-.237c-.008-.338-.196-.828-.44-1.166-.285-.39-.782-.643-1.344-.694-.383-.034-.48-.017-.635.136ZM21.323 29.442c-.407.11-.994.66-1.157 1.09a2.92 2.92 0 0 0-.154.77c-.017.363.016.448.211.625.48.423 1.116.093 1.116-.583 0-.33.244-.558.676-.642.456-.085.62-.271.627-.702 0-.567-.505-.786-1.32-.558Z" fill="#131313"/></symbol><symbol id="kettlebell" viewBox="0 0 36 36"><path d="M15.95.615c-4.471.663-8.153 3.146-9.508 6.396-.432 1.027-.548 1.658-.548 2.895.008.914.041 1.253.183 1.746.29.97.498 1.464.93 2.16l.4.646-.45.55c-3.548 4.415-3.939 10.625-.98 15.517 1.105 1.836 2.909 3.639 4.67 4.69l.524.307 7.164-.056 7.172-.065.34-.186c1.189-.671 2.867-2.167 3.806-3.38a14.189 14.189 0 0 0 2.726-6.323c.133-.833.133-3.3-.008-4.084-.424-2.417-1.33-4.487-2.759-6.323-.274-.348-.49-.639-.49-.663 0-.016.15-.267.324-.55a8.75 8.75 0 0 0 .972-2.207c.224-.809.224-2.83 0-3.639-.798-2.87-3.191-5.264-6.573-6.582-.948-.372-2.569-.768-3.616-.897-.972-.113-3.374-.09-4.28.048Zm5.06 1.318c4.438.865 7.688 3.582 8.286 6.93.133.752.05 2.03-.174 2.741-.225.695-.64 1.512-1.13 2.208-.2.283-.366.606-.366.711 0 .105.174.38.424.655 2.077 2.305 3.174 5.191 3.174 8.312-.008 3.55-1.371 6.663-3.997 9.105-.449.42-1.089.946-1.43 1.172l-.623.42-6.873.025-6.864.032-.532-.34c-1.928-1.252-3.665-3.322-4.629-5.522-1.213-2.781-1.338-6.008-.349-8.902.524-1.504 1.222-2.733 2.285-4.027.433-.518.632-.825.632-.97 0-.122-.216-.518-.499-.93-.997-1.448-1.404-3.057-1.163-4.577.25-1.536.947-2.798 2.235-4.05 1.68-1.626 4.023-2.702 6.774-3.106 1.138-.17 3.656-.105 4.82.113Z"/><path d="M16.323 3.356c-3.408.558-6.075 2.45-6.948 4.933-.2.558-.232.776-.232 1.576 0 .801.033 1.02.232 1.577.125.356.358.85.516 1.1.432.695.623.72 1.479.202a13.439 13.439 0 0 1 4.28-1.674c1.03-.21 3.008-.29 4.13-.161 1.753.202 3.657.832 5.177 1.73.433.25.873.46.981.46.632 0 1.438-1.819 1.438-3.234 0-3.145-3.009-5.838-7.272-6.509-.906-.145-2.909-.145-3.781 0Zm4.113 1.294c1.43.307 2.743.89 3.732 1.658 1.33 1.027 2.044 2.458 1.928 3.84-.042.55-.25 1.294-.374 1.375-.033.016-.499-.178-1.03-.437A16.485 16.485 0 0 0 21.06 9.85c-.773-.161-1.097-.186-2.826-.178-1.703 0-2.06.025-2.8.178a14.97 14.97 0 0 0-3.507 1.197c-1.239.59-1.172.598-1.397-.13-.29-.945-.108-2.199.458-3.145.299-.501 1.121-1.334 1.72-1.746 1.138-.785 2.136-1.14 4.28-1.529.44-.08 2.883.033 3.448.154ZM19.083 15.08c-.233.292-.233.567.008.801.158.154.316.194.89.235a7.321 7.321 0 0 1 3.132.954c.682.404 1.72 1.383 2.186 2.086.69 1.01 1.163 2.458 1.163 3.526 0 .372.034.485.208.646.266.267.615.267.873 0 .183-.186.19-.234.141-1.026-.233-3.914-3.582-7.18-7.587-7.4l-.832-.048-.182.227Z"/></symbol><symbol id="ice-cream" viewBox="0 0 36 36"><path d="M18.122.12c.09.242.271 1.409.271 1.77a3.47 3.47 0 0 1-.941 2.388c-.505.542-1.01.843-2.222 1.333-1.348.55-1.906.881-2.538 1.506-.64.64-1.017 1.34-1.152 2.162-.151.896 0 1.528.459 1.89l.233.18-.369.234c-.745.49-2.1 1.642-2.334 1.996-.452.678-.407 1.31.105 1.567l.241.12-.271.256c-.407.384-.49.648-.43 1.34.038.46.023.709-.082 1.085-.128.49-.128.497.037.844.166.339.633.768 1.055.949.203.09.21.12.256.813.023.4.06 1.672.09 2.832.023 1.16.076 2.222.12 2.35.038.135.181.316.31.406.436.302.738.626.933 1.002.219.43.46 1.484 1.19 5.129l.512 2.56.317.302c.602.595 1.755.866 3.653.866 1.905 0 3.042-.264 3.645-.859l.324-.308L22 32.46c1.031-5.189 1.122-5.475 1.928-6.115.248-.204.49-.452.534-.565.053-.128.106-1.115.143-2.606.03-1.325.076-2.636.106-2.915l.045-.504.49-.37c.617-.474.858-.903.858-1.566-.007-.783-.52-1.642-1.453-2.41l-.445-.361.219-.31c.911-1.257.339-2.997-1.356-4.156l-.512-.354.188-.196c.836-.896.972-3.57.271-5.43-.421-1.107-1.386-2.312-2.568-3.201C19.87.964 18.272 0 18.13 0c-.03 0-.03.053-.007.12ZM20.29 2.75c.4.392.881.926 1.07 1.197 1.122 1.567 1.408 3.533.73 4.979-.271.587-1.085 1.46-1.838 1.98-1.152.799-3.743 2.14-5.55 2.877-2.907 1.183-4.595 1.409-4.79.633-.076-.294.143-.527 1.07-1.145.835-.572 4.586-3.359 4.653-3.472.023-.03-.361.143-.843.384-1.634.829-2.41.67-2.372-.482.022-.836.625-1.785 1.46-2.327.212-.135.867-.437 1.47-.678 1.98-.798 2.583-1.205 3.253-2.206.4-.595.836-1.695.866-2.162.008-.165.038-.294.06-.294.023 0 .362.324.76.716Zm2.056 8.556c.55.308 1.122.836 1.37 1.25.438.745.212 1.491-.73 2.44-1.024 1.04-2.771 2.034-4.692 2.666-1.77.58-3.464.851-5.89.934l-1.506.053.98.06c1.265.083 3.712.008 4.661-.143 2.523-.4 4.67-1.198 6.206-2.297.347-.249.708-.452.806-.452.249 0 1.333 1.04 1.552 1.476.12.249.15.43.128.67-.113 1.002-1.334 1.537-4.278 1.89-3.6.43-8.307.008-10.318-.918-.95-.437-1.107-.686-.866-1.348.075-.211.09-.46.06-.814-.038-.467-.03-.527.135-.7.377-.407 1.01-.64 3.33-1.228.813-.21 1.92-.542 2.447-.738 1.28-.467 3.683-1.68 4.797-2.425 1.047-.693 1.198-.723 1.808-.376Zm-10.002 9.218c1.582.46 2.983.595 5.589.542 1.958-.037 3.163-.158 4.902-.467.355-.06.663-.113.701-.113.083 0 .06 2.892-.03 3.653-.098.806-.317 1.431-.55 1.582-.241.158-1.446.324-3.058.414-3.306.18-6.703 0-7.757-.422-.572-.233-.633-.535-.64-3.329 0-1.86.015-2.116.113-2.078.06.022.391.12.73.218Zm1.785 6.402c.542.067 1.13.135 1.31.158l.325.038-.287.316c-.369.399-.934 1.197-1.137 1.604-.233.467-.309.497-.655.309l-.294-.166-.165-1.024a28.822 28.822 0 0 0-.211-1.183c-.068-.195-.136-.195 1.114-.052Zm8.029-.083c0 .015-.038.21-.076.43-.045.225-.233 1.453-.421 2.733-.384 2.674-.64 3.931-.874 4.353-.324.565-1.1.896-2.357 1.002-.49.038-1.966-.06-2.049-.136-.06-.067 1.235-1.672 1.439-1.777.188-.106.24-.09.88.24.746.393 1.123.453 1.123.204 0-.248-.196-.49-.678-.82-.444-.317-.602-.498-.602-.709 0-.06.218-.399.482-.753.263-.354.647-.919.843-1.258l.37-.61.338.046c.685.098.866.09.844-.06-.015-.076-.143-.294-.287-.475-.143-.188-.256-.377-.256-.414 0-.143.7-1.461.927-1.74.196-.241.354-.362.354-.256Zm-4.707.602c.376.249 1.792 1.477 1.882 1.627.038.068-1.415 2.342-1.702 2.666-.03.038-.188-.037-.346-.158a24.697 24.697 0 0 0-1.31-.904l-1.017-.67.61-1.032c1.084-1.815 1.062-1.785 1.295-1.785.12 0 .384.113.588.256Zm2.854.271c-.264.324-.482.528-.572.528-.196 0-.513-.173-1.047-.565l-.445-.324.89-.053a17.57 17.57 0 0 0 1.03-.067c.603-.098.603-.09.144.481Zm-5.694 3.623c.693.271 1.868.911 2.207 1.198.241.195.241.21.143.451a7.58 7.58 0 0 1-.467.806 13.73 13.73 0 0 0-.505.836c-.24.467-.316.505-.813.37-.535-.159-.82-.43-.971-.92-.204-.685-.528-2.62-.49-2.922.015-.113.331-.045.896.181Z"/></symbol><symbol id="git-hub" viewBox="0 0 20 20"><path d="M10 0C4.507 0 0 4.507 0 10c0 4.687 3.289 8.945 7.656 10v-3.308a2.446 2.446 0 0 1-1.271-.033c-.591-.174-1.071-.568-1.428-1.168-.227-.383-.63-.8-1.05-.769l-.103-1.167c.909-.078 1.694.554 2.16 1.337.208.349.447.553.753.643.295.088.613.046.983-.085.093-.741.433-1.018.69-1.41-2.605-.388-3.643-1.77-4.055-2.86-.546-1.449-.253-3.258.712-4.402.019-.022.053-.08.04-.12-.443-1.338.096-2.444.116-2.561.511.15.594-.152 2.22.835l.28.169c.118.07.08.03.198.02A8.486 8.486 0 0 1 10 4.828c.71.009 1.42.11 2.127.302l.091.01c-.008-.002.025-.006.08-.039 2.03-1.23 1.957-.828 2.502-1.005.02.118.551 1.242.114 2.562-.06.182 1.76 1.848.751 4.522-.412 1.09-1.45 2.473-4.054 2.861.334.51.735.78.733 1.83V20C16.71 18.945 20 14.687 20 10c0-5.493-4.507-10-10-10Z"/></symbol><symbol id="telegram" viewBox="0 0 22 16"><path d="m8.672 10.524-.338 4.43c.483 0 .692-.194.943-.426l2.264-2.02 4.69 3.207c.86.447 1.466.211 1.698-.739l3.08-13.464V1.51c.273-1.187-.46-1.651-1.298-1.36L1.614 6.617C.38 7.065.398 7.707 1.404 8l4.627 1.343 10.747-6.276c.505-.313.965-.14.587.173l-8.693 7.285Z"/></symbol><symbol id="facebook" viewBox="0 0 11 22"><path d="M9.723 10.98H6.95V21.2H2.748V10.98H.75V7.39h1.998V5.065C2.748 3.403 3.533.8 6.988.8L10.1.813V4.3H7.842c-.37 0-.892.187-.892.98v2.113h3.14l-.367 3.588Z"/></symbol></defs></svg>