<svg aria-hidden="true" style="position: absolute; width: 0; height: 0; overflow: hidden;" version="1.1" xmlns="http://www.w3.org/2000/svg" xmlns:xlink="http://www.w3.org/1999/xlink">
<defs>
<symbol id="icon-ice-crema" viewBox="0 0 32 32">
<path d="M16.108 0.107c0.080 0.215 0.241 1.252 0.241 1.573 0 0.003 0 0.007 0 0.011 0 0.818-0.318 1.561-0.838 2.114l0.001-0.002c-0.449 0.482-0.898 0.749-1.975 1.185-1.198 0.489-1.694 0.783-2.256 1.339-0.569 0.569-0.904 1.191-1.024 1.922-0.134 0.796 0 1.358 0.408 1.68l0.207 0.16-0.328 0.208c-0.662 0.436-1.867 1.46-2.075 1.774-0.402 0.603-0.362 1.164 0.093 1.393l0.214 0.107-0.241 0.228c-0.362 0.341-0.436 0.576-0.382 1.191 0.034 0.409 0.020 0.63-0.073 0.964-0.114 0.436-0.114 0.442 0.033 0.75 0.148 0.301 0.563 0.683 0.938 0.844 0.18 0.080 0.187 0.107 0.228 0.723 0.020 0.356 0.053 1.486 0.080 2.517 0.020 1.031 0.068 1.975 0.107 2.089 0.034 0.12 0.161 0.281 0.276 0.361 0.388 0.268 0.656 0.556 0.829 0.891 0.195 0.382 0.409 1.319 1.058 4.559l0.455 2.276 0.282 0.268c0.535 0.529 1.56 0.77 3.247 0.77 1.693 0 2.704-0.235 3.24-0.764l0.288-0.274 0.414-2.109c0.916-4.612 0.997-4.867 1.714-5.436 0.22-0.181 0.436-0.402 0.475-0.502 0.047-0.114 0.094-0.991 0.127-2.316 0.027-1.178 0.068-2.343 0.094-2.591l0.040-0.448 0.436-0.329c0.548-0.421 0.763-0.803 0.763-1.392-0.006-0.696-0.462-1.46-1.292-2.142l-0.396-0.321 0.195-0.276c0.81-1.117 0.301-2.664-1.205-3.694l-0.455-0.315 0.167-0.174c0.743-0.796 0.864-3.173 0.241-4.827-0.374-0.984-1.232-2.055-2.283-2.845-0.514-0.388-1.934-1.245-2.060-1.245-0.027 0-0.027 0.047-0.006 0.107zM18.036 2.444c0.356 0.348 0.783 0.823 0.951 1.064 0.997 1.393 1.252 3.14 0.649 4.426-0.241 0.522-0.964 1.298-1.634 1.76-1.024 0.71-3.327 1.902-4.933 2.557-2.584 1.052-4.084 1.252-4.258 0.563-0.068-0.261 0.127-0.468 0.951-1.018 0.742-0.508 4.076-2.986 4.136-3.086 0.020-0.027-0.321 0.127-0.749 0.341-1.452 0.737-2.142 0.596-2.108-0.428 0.020-0.743 0.556-1.587 1.298-2.068 0.188-0.12 0.771-0.388 1.307-0.603 1.76-0.709 2.296-1.071 2.892-1.961 0.356-0.529 0.743-1.507 0.77-1.922 0.007-0.147 0.034-0.261 0.053-0.261s0.322 0.288 0.676 0.636zM19.863 10.050c0.489 0.274 0.997 0.743 1.218 1.111 0.389 0.662 0.188 1.325-0.649 2.169-0.91 0.924-2.463 1.808-4.171 2.37-1.573 0.516-3.079 0.756-5.236 0.83l-1.339 0.047 0.871 0.053c1.124 0.074 3.3 0.007 4.143-0.127 2.243-0.356 4.151-1.065 5.516-2.042 0.308-0.221 0.629-0.402 0.716-0.402 0.221 0 1.185 0.924 1.38 1.312 0.107 0.221 0.133 0.382 0.114 0.596-0.1 0.891-1.186 1.366-3.803 1.68-3.2 0.382-7.384 0.007-9.172-0.816-0.844-0.388-0.984-0.61-0.77-1.198 0.067-0.188 0.080-0.409 0.053-0.724-0.034-0.415-0.027-0.468 0.12-0.622 0.335-0.362 0.898-0.569 2.96-1.092 0.723-0.187 1.707-0.482 2.175-0.656 1.138-0.415 3.274-1.493 4.264-2.156 0.931-0.616 1.065-0.643 1.607-0.334zM10.972 18.244c1.406 0.409 2.652 0.529 4.968 0.482 1.74-0.033 2.812-0.14 4.357-0.415 0.316-0.053 0.589-0.1 0.623-0.1 0.074 0 0.053 2.571-0.027 3.247-0.087 0.716-0.282 1.272-0.489 1.406-0.214 0.14-1.285 0.288-2.718 0.368-2.939 0.16-5.958 0-6.895-0.375-0.508-0.207-0.563-0.476-0.569-2.959 0-1.653 0.013-1.881 0.1-1.847 0.053 0.020 0.348 0.107 0.649 0.194zM12.559 23.934c0.482 0.060 1.004 0.12 1.164 0.14l0.289 0.034-0.255 0.281c-0.328 0.355-0.83 1.064-1.011 1.426-0.207 0.415-0.275 0.442-0.582 0.275l-0.261-0.148-0.147-0.91c-0.078-0.506-0.143-0.863-0.216-1.217l0.028 0.165c-0.060-0.173-0.121-0.173 0.99-0.046zM19.696 23.86c0 0.013-0.034 0.187-0.068 0.382-0.040 0.2-0.207 1.292-0.374 2.429-0.341 2.377-0.569 3.494-0.777 3.869-0.288 0.502-0.978 0.796-2.095 0.891-0.436 0.034-1.748-0.053-1.821-0.121-0.053-0.060 1.098-1.486 1.279-1.58 0.167-0.094 0.213-0.080 0.782 0.213 0.663 0.349 0.998 0.403 0.998 0.181s-0.174-0.436-0.603-0.729c-0.395-0.282-0.535-0.443-0.535-0.63 0-0.053 0.194-0.355 0.428-0.669s0.575-0.817 0.749-1.118l0.329-0.542 0.3 0.041c0.609 0.087 0.77 0.080 0.75-0.053-0.013-0.068-0.127-0.261-0.255-0.422-0.127-0.167-0.228-0.335-0.228-0.368 0-0.127 0.622-1.299 0.824-1.547 0.174-0.214 0.315-0.322 0.315-0.228zM15.512 24.396c0.334 0.221 1.593 1.313 1.673 1.446 0.034 0.060-1.258 2.082-1.513 2.37-0.027 0.034-0.167-0.033-0.308-0.14-0.312-0.235-0.692-0.499-1.080-0.752l-0.085-0.052-0.904-0.596 0.542-0.917c0.964-1.613 0.944-1.587 1.151-1.587 0.107 0 0.341 0.1 0.523 0.228zM18.049 24.636c-0.235 0.288-0.428 0.469-0.508 0.469-0.174 0-0.456-0.154-0.931-0.502l-0.396-0.288 0.791-0.047c0.348-0.013 0.665-0.034 0.98-0.065l-0.064 0.005c0.536-0.087 0.536-0.080 0.128 0.428zM12.988 27.857c0.616 0.241 1.66 0.81 1.962 1.065 0.214 0.173 0.214 0.187 0.127 0.401-0.141 0.281-0.279 0.516-0.43 0.741l0.015-0.024c-0.128 0.191-0.277 0.434-0.417 0.682l-0.032 0.061c-0.213 0.415-0.281 0.449-0.723 0.329-0.476-0.141-0.729-0.382-0.863-0.818-0.181-0.609-0.469-2.329-0.436-2.597 0.013-0.1 0.294-0.040 0.796 0.161z"></path>
</symbol>
<symbol id="icon-cow" viewBox="0 0 32 32">
<path d="M6.169 0.192c-0.262 0.226-1.008 1.781-1.276 2.631-0.318 1.052-0.427 1.842-0.384 2.932 0.058 1.556 0.449 2.736 1.31 3.969 0.225 0.323 0.406 0.601 0.406 0.624 0 0.015-0.138 0.029-0.311 0.029-0.747 0-2.144 0.249-3.215 0.572-1.7 0.511-2.7 1.405-2.7 2.405 0 0.354 0.318 0.955 0.659 1.262 0.659 0.595 2.1 1.158 3.649 1.428 0.536 0.098 2.129 0.263 2.484 0.271 0.065 0 0.087 0.346 0.087 1.481 0 0.977 0.036 1.736 0.108 2.202 0.26 1.668 1.071 3.436 2.142 4.683l0.37 0.428-0.246 0.399c-0.362 0.564-0.5 0.992-0.542 1.631-0.109 1.533 0.846 2.893 2.693 3.849 3.517 1.826 8.984 1.111 11.033-1.444 0.999-1.248 1.115-2.676 0.325-3.969l-0.246-0.398 0.442-0.533c0.826-0.993 1.361-1.985 1.766-3.24 0.34-1.068 0.471-2.098 0.471-3.729 0-0.744 0.021-1.36 0.058-1.36 0.333-0.008 1.933-0.18 2.44-0.271 1.556-0.27 2.969-0.827 3.649-1.428 0.34-0.308 0.659-0.909 0.659-1.263 0-1.113-1.129-2.014-3.229-2.556-0.687-0.18-1.983-0.398-2.613-0.436l-0.297-0.023 0.326-0.451c0.405-0.549 0.912-1.616 1.108-2.316 0.55-2.021 0.21-4.374-0.97-6.622-0.493-0.932-0.834-1.149-1.231-0.782-0.152 0.144-0.218 0.339-0.362 1.045-0.449 2.248-1.282 4.029-2.498 5.345l-0.536 0.587h-11.453l-0.478-0.519c-1.187-1.308-2.049-3.157-2.498-5.412-0.145-0.707-0.21-0.901-0.362-1.044-0.239-0.218-0.471-0.211-0.738 0.022zM7.095 4.65c0.384 0.842 0.862 1.631 1.426 2.36l0.449 0.579-0.47 0.354c-0.442 0.338-0.854 0.819-1.173 1.368l-0.137 0.248-0.348-0.474c-1.188-1.639-1.484-3.645-0.854-5.728 0.304-1.007 0.297-0.999 0.572-0.127 0.131 0.42 0.377 1.060 0.536 1.42zM25.94 3.064c0.262 0.728 0.414 1.569 0.414 2.445 0 0.031-0 0.062-0.001 0.093l0-0.005c0 1.367-0.362 2.524-1.122 3.563l-0.34 0.466-0.253-0.428c-0.328-0.556-0.752-1.019-1.254-1.382l-0.013-0.009c-0.196-0.127-0.347-0.255-0.347-0.27 0-0.022 0.137-0.196 0.311-0.383 0.804-0.895 1.665-2.503 2.092-3.886 0.13-0.428 0.26-0.782 0.282-0.782s0.131 0.263 0.231 0.58zM22.241 8.558c0.804 0.338 1.571 1.308 1.694 2.127 0.065 0.451 0.217 0.737 0.412 0.782 0.087 0.014 0.688 0.068 1.332 0.112 2.287 0.151 4.090 0.64 4.858 1.308 0.355 0.316 0.318 0.578-0.108 0.901-0.854 0.647-2.7 1.135-4.583 1.218-1.245 0.053-1.506 0.091-1.673 0.263-0.123 0.128-0.137 0.263-0.137 1.624 0 1.842-0.094 2.901-0.326 3.758-0.325 1.164-0.97 2.405-1.723 3.284l-0.311 0.361-0.644-0.383c-0.687-0.426-1.485-0.76-2.335-0.958l-0.054-0.011c-2.744-0.655-5.778-0.256-7.819 1.029l-0.471 0.3-0.297-0.354c-0.405-0.473-1.043-1.488-1.296-2.060-0.557-1.292-0.724-2.345-0.724-4.66 0-2.248 0.116-2.083-1.549-2.172-2.129-0.113-3.751-0.496-4.772-1.143-0.753-0.48-0.629-0.909 0.42-1.413 1.006-0.488 2.388-0.781 4.308-0.901 1.492-0.098 1.527-0.12 1.665-0.842 0.203-1.090 1.006-1.992 2.020-2.277 0.253-0.076 1.672-0.091 6.016-0.083l5.684 0.015 0.412 0.172zM18.172 24.117c1.774 0.436 3.099 1.248 3.671 2.255 0.138 0.233 0.196 0.474 0.224 0.842 0.029 0.459 0.008 0.572-0.166 0.948-0.804 1.707-3.757 2.834-6.762 2.578-3.612-0.3-5.988-2.315-5.053-4.292 0.507-1.068 2.222-2.090 4.032-2.391 0.297-0.044 0.594-0.098 0.652-0.112s0.71-0.015 1.449 0c1.005 0.022 1.491 0.068 1.954 0.172z"></path>
<path d="M10.99 12.321c-0.45 0.151-0.754 0.347-1.159 0.752-0.355 0.338-0.383 0.736-0.086 0.977 0.276 0.225 0.535 0.196 0.868-0.098 0.42-0.368 0.746-0.518 1.151-0.518 0.405-0.008 0.716 0.135 1.151 0.518 0.333 0.293 0.594 0.323 0.868 0.098 0.145-0.12 0.188-0.218 0.188-0.444 0-0.232-0.051-0.338-0.304-0.593-0.716-0.721-1.781-0.999-2.679-0.692zM19.431 12.313c-0.462 0.173-1.057 0.564-1.295 0.857-0.232 0.286-0.24 0.609 0 0.85 0.238 0.255 0.528 0.24 0.876-0.045 0.854-0.707 1.492-0.729 2.281-0.076 0.203 0.173 0.434 0.308 0.507 0.308 0.355 0 0.644-0.316 0.644-0.692 0-0.24-0.601-0.796-1.144-1.060-0.601-0.293-1.317-0.346-1.868-0.142zM12.040 26.224c-0.21 0.203-0.283 0.496-0.174 0.729 0.080 0.187 0.203 0.263 0.702 0.398 0.225 0.060 0.319 0.135 0.398 0.323 0.101 0.249 0.109 0.249 0.667 0.271l0.557 0.022v-0.211c-0.007-0.3-0.174-0.736-0.391-1.036-0.253-0.347-0.695-0.572-1.195-0.617-0.34-0.030-0.427-0.015-0.564 0.121zM18.954 26.171c-0.362 0.098-0.884 0.587-1.028 0.969-0.072 0.201-0.121 0.435-0.137 0.677l-0 0.008c-0.015 0.323 0.014 0.398 0.188 0.556 0.427 0.376 0.992 0.083 0.992-0.518 0-0.293 0.217-0.496 0.601-0.571 0.405-0.076 0.551-0.241 0.557-0.624 0-0.504-0.449-0.699-1.173-0.496z"></path>
</symbol>
<symbol id="icon-weight" viewBox="0 0 32 32">
<path d="M14.178 0.547c-3.974 0.589-7.247 2.796-8.452 5.685-0.384 0.913-0.487 1.474-0.487 2.573 0.007 0.812 0.036 1.114 0.163 1.552 0.258 0.862 0.443 1.301 0.827 1.92l0.356 0.574-0.4 0.489c-3.154 3.924-3.501 9.444-0.871 13.793 0.982 1.632 2.586 3.235 4.151 4.169l0.466 0.273 12.743-0.108 0.302-0.165c1.057-0.596 2.548-1.926 3.383-3.004 1.208-1.569 2.064-3.472 2.413-5.546l0.010-0.074c0.118-0.74 0.118-2.933-0.007-3.63-0.377-2.148-1.182-3.988-2.452-5.62-0.244-0.309-0.436-0.568-0.436-0.589 0-0.014 0.133-0.237 0.288-0.489 0.354-0.564 0.649-1.216 0.85-1.907l0.014-0.055c0.199-0.719 0.199-2.516 0-3.235-0.709-2.551-2.836-4.679-5.843-5.851-0.843-0.331-2.284-0.683-3.214-0.797-0.864-0.1-2.999-0.080-3.804 0.043zM18.676 1.718c3.945 0.769 6.834 3.184 7.365 6.16 0.118 0.668 0.044 1.804-0.155 2.436-0.2 0.618-0.569 1.344-1.004 1.963-0.178 0.252-0.325 0.539-0.325 0.632s0.155 0.338 0.377 0.582c1.846 2.049 2.821 4.614 2.821 7.388-0.007 3.156-1.219 5.923-3.553 8.093-0.399 0.373-0.968 0.841-1.271 1.042l-0.554 0.373-12.211 0.051-0.473-0.302c-1.714-1.113-3.258-2.953-4.115-4.908-1.078-2.472-1.189-5.34-0.31-7.913 0.466-1.337 1.086-2.429 2.031-3.58 0.385-0.46 0.562-0.733 0.562-0.862 0-0.108-0.192-0.46-0.444-0.827-0.886-1.287-1.248-2.717-1.034-4.068 0.222-1.365 0.842-2.487 1.987-3.6 1.493-1.445 3.576-2.402 6.021-2.761 1.012-0.151 3.25-0.093 4.284 0.1z"></path>
<path d="M14.509 2.983c-3.029 0.496-5.4 2.178-6.176 4.385-0.178 0.496-0.206 0.69-0.206 1.401s0.029 0.907 0.206 1.402c0.111 0.316 0.318 0.756 0.459 0.978 0.384 0.618 0.554 0.64 1.315 0.18 1.094-0.674 2.368-1.19 3.727-1.474l0.078-0.014c0.916-0.187 2.674-0.258 3.671-0.143 1.558 0.18 3.251 0.74 4.602 1.538 0.385 0.222 0.776 0.409 0.872 0.409 0.562 0 1.278-1.617 1.278-2.875 0-2.796-2.675-5.189-6.464-5.786-0.805-0.129-2.586-0.129-3.361 0zM18.165 4.133c1.271 0.273 2.438 0.791 3.317 1.474 1.182 0.913 1.817 2.185 1.714 3.413-0.037 0.489-0.222 1.15-0.332 1.222-0.029 0.014-0.444-0.158-0.916-0.388-0.926-0.454-2.004-0.832-3.131-1.081l-0.097-0.018c-0.687-0.143-0.975-0.165-2.512-0.158-1.514 0-1.831 0.022-2.489 0.158-1.179 0.249-2.221 0.616-3.195 1.099l0.078-0.035c-1.101 0.524-1.042 0.532-1.242-0.116-0.258-0.84-0.096-1.955 0.407-2.796 0.266-0.445 0.996-1.186 1.529-1.552 1.012-0.698 1.899-1.013 3.804-1.359 0.391-0.071 2.563 0.029 3.065 0.137zM16.963 13.404c-0.207 0.26-0.207 0.504 0.007 0.712 0.14 0.137 0.281 0.172 0.791 0.209 1.034 0.075 1.983 0.38 2.815 0.865l-0.031-0.017c0.606 0.359 1.529 1.229 1.943 1.854 0.613 0.898 1.034 2.185 1.034 3.134 0 0.331 0.030 0.431 0.185 0.574 0.236 0.237 0.547 0.237 0.776 0 0.163-0.165 0.169-0.208 0.125-0.912-0.207-3.479-3.184-6.382-6.744-6.578l-0.74-0.043-0.162 0.202z"></path>
</symbol>
<symbol id="logo" viewBox="0 0 40 38">
<path d="M20.4058 16.7549C22.3215 11.5702 18.3544 8.73211 15.7248 6.86682C15.222 6.48574 14.7192 6.12973 14.3119 5.80381C13.584 5.19132 13.0479 4.38326 12.7671 3.47571C12.4863 2.56816 12.4728 1.59929 12.7281 0.684293C12.7543 0.58856 12.7537 0.487476 12.7262 0.392087C12.6987 0.296697 12.6455 0.210668 12.5724 0.143396C12.4992 0.0761238 12.4089 0.0301974 12.3114 0.0106302C12.2138 -0.008937 12.1127 -0.00139141 12.0192 0.0324434C11.1336 0.381861 10.3102 0.871156 9.58059 1.48155C8.87957 2.02055 8.31163 2.71247 7.92031 3.50428C7.52898 4.29609 7.32467 5.16675 7.32304 6.04951C6.82721 6.43932 6.38884 6.89675 6.02079 7.40836C5.34467 8.32879 5.00568 9.45271 5.06045 10.5924C4.25508 11.3301 3.65525 12.2634 3.31951 13.3013C2.98376 14.3392 2.92356 15.4462 3.1448 16.5142C2.82439 16.7072 2.5764 16.9998 2.43887 17.3471C2.30135 17.6943 2.28191 18.0769 2.38354 18.4362C2.48518 18.7955 2.70227 19.1116 3.00147 19.336C3.30067 19.5603 3.66544 19.6805 4.03977 19.6782H4.07497V22.6265C4.07497 22.9257 4.19416 23.2127 4.40632 23.4243C4.61847 23.6358 4.90623 23.7547 5.20627 23.7547H6.08616L7.51913 36.1398C7.54893 36.4155 7.67993 36.6705 7.88693 36.8557C8.09394 37.0408 8.3623 37.143 8.64036 37.1427H14.6035C14.8818 37.1421 15.1502 37.0396 15.3578 36.8548C15.5654 36.6699 15.6978 36.4155 15.7298 36.1398L17.1628 23.7547H18.0427C18.3427 23.7547 18.6304 23.6358 18.8426 23.4243C19.0548 23.2127 19.174 22.9257 19.174 22.6265V19.6782H19.2092C19.6639 19.6782 20.1 19.498 20.4215 19.1773C20.7431 18.8567 20.9237 18.4218 20.9237 17.9683C20.926 17.742 20.8826 17.5175 20.7963 17.3082C20.7099 17.0989 20.5822 16.909 20.4209 16.7498L20.4058 16.7549ZM7.49902 7.34819C8.22305 10.0609 11.0186 11.1289 13.5678 12.0816C13.6363 12.1237 13.7133 12.1502 13.7933 12.1592C13.8732 12.1683 13.9542 12.1597 14.0304 12.134C14.1067 12.1083 14.1763 12.0662 14.2344 12.0106C14.2925 11.9551 14.3376 11.8874 14.3665 11.8125C14.3954 11.7376 14.4074 11.6573 14.4017 11.5773C14.396 11.4972 14.3726 11.4194 14.3333 11.3493C14.2941 11.2793 14.2398 11.2187 14.1744 11.172C14.109 11.1252 14.0341 11.0934 13.9549 11.0788C11.2097 10.0408 8.62025 9.07308 8.42416 6.30022C8.37821 5.53799 8.52168 4.77625 8.84183 4.0826C9.16198 3.38895 9.64889 2.78485 10.2594 2.32394C10.6418 2.00659 11.0525 1.72463 11.4862 1.48155C11.4583 1.82865 11.4583 2.17742 11.4862 2.52451C11.5444 3.31909 11.7622 4.09389 12.1267 4.80283C12.4912 5.51176 12.995 6.14035 13.608 6.65121C14.0253 7.00722 14.5432 7.37326 15.1164 7.76437C16.4387 8.71205 17.9421 9.77006 18.8974 11.2041C19.4071 11.9396 19.7243 12.7905 19.82 13.6794C19.9157 14.5683 19.7869 15.4669 19.4455 16.2936H19.2343H17.2231C12.6426 16.2936 7.37835 15.03 6.33756 11.4899C6.13109 10.7616 6.13278 9.9903 6.34244 9.26292C6.5521 8.53553 6.9614 7.88104 7.52415 7.37326L7.49902 7.34819ZM11.6219 24.4417L13.3013 26.1164L11.6219 27.7912L9.9426 26.1064L11.6219 24.4417ZM15.4734 28.8391L14.0857 30.2231L12.4063 28.5483L14.0857 26.8786L15.5438 28.3277L15.4734 28.8391ZM11.6219 32.68L9.9426 31.0053L11.6219 29.3305L13.3013 31.0053L11.6219 32.68ZM10.8527 28.5583L9.17332 30.2331L7.77555 28.8391L7.71522 28.3377L9.17332 26.8886L10.8527 28.5583ZM8.39903 31.0053L8.06215 31.3412L7.97667 30.5791L8.39903 31.0053ZM8.22305 32.7201L9.17332 31.7724L11.0186 33.6277C11.028 33.6652 11.0398 33.702 11.0538 33.738H8.33868L8.22305 32.7201ZM14.0756 31.7724L15.0259 32.7201L14.9102 33.723H12.1197L14.0756 31.7724ZM15.1818 31.3412L14.8449 31.0053L15.2723 30.5791L15.1818 31.3412ZM15.6845 26.9588L14.8449 26.1064L15.9108 25.0434L15.6845 26.9588ZM14.0706 25.3442L12.4767 23.7597H15.6644L14.0706 25.3442ZM9.16831 25.3442L7.57443 23.7597H10.7622L9.16831 25.3442ZM14.5985 36.0546H8.64036C8.6314 36.0535 8.62305 36.0495 8.61667 36.0431C8.61029 36.0368 8.60623 36.0284 8.60516 36.0195L8.46438 34.8161H14.7795L14.6438 36.0195C14.6425 36.0292 14.6377 36.0382 14.6303 36.0447C14.6229 36.0511 14.6134 36.0547 14.6035 36.0546H14.5985ZM19.2092 18.5851H17.4594C17.3834 18.5778 17.3066 18.5864 17.2342 18.6104C17.1617 18.6345 17.095 18.6733 17.0385 18.7246C16.9819 18.7758 16.9367 18.8382 16.9058 18.9079C16.8749 18.9776 16.8589 19.0529 16.8589 19.1291C16.8589 19.2053 16.8749 19.2806 16.9058 19.3503C16.9367 19.4199 16.9819 19.4824 17.0385 19.5336C17.095 19.5849 17.1617 19.6237 17.2342 19.6478C17.3066 19.6718 17.3834 19.6804 17.4594 19.6731H18.0829V22.6215C18.0817 22.6312 18.0769 22.6402 18.0695 22.6467C18.0621 22.6531 18.0525 22.6567 18.0427 22.6566H5.18615C5.1763 22.6567 5.16676 22.6531 5.15934 22.6467C5.15193 22.6402 5.14716 22.6312 5.14593 22.6215V19.6731H15.1063C15.242 19.6601 15.3679 19.5972 15.4595 19.4966C15.5512 19.396 15.6019 19.265 15.6019 19.1291C15.6019 18.9932 15.5512 18.8622 15.4595 18.7616C15.3679 18.661 15.242 18.5981 15.1063 18.5851H4.04481C3.95857 18.5928 3.87165 18.5825 3.7896 18.5549C3.70756 18.5273 3.63217 18.483 3.56825 18.4247C3.50433 18.3665 3.45329 18.2956 3.41837 18.2166C3.38344 18.1376 3.3654 18.0521 3.3654 17.9658C3.3654 17.8794 3.38344 17.794 3.41837 17.715C3.45329 17.636 3.50433 17.5651 3.56825 17.5068C3.63217 17.4486 3.70756 17.4042 3.7896 17.3766C3.87165 17.349 3.95857 17.3388 4.04481 17.3465H5.18615C5.3218 17.3335 5.44772 17.2706 5.53936 17.17C5.63099 17.0694 5.68177 16.9384 5.68177 16.8025C5.68177 16.6666 5.63099 16.5356 5.53936 16.435C5.44772 16.3344 5.3218 16.2715 5.18615 16.2585H4.18056C4.03653 15.4955 4.05993 14.7105 4.24915 13.9575C4.43836 13.2044 4.7889 12.5011 5.27665 11.8961C5.62861 12.9892 6.53364 14.4834 8.79623 15.6718C10.9231 16.7799 13.7387 17.3465 17.1628 17.3465H19.174C19.2602 17.3388 19.3471 17.349 19.4292 17.3766C19.5112 17.4042 19.5866 17.4486 19.6505 17.5068C19.7144 17.5651 19.7655 17.636 19.8004 17.715C19.8353 17.794 19.8533 17.8794 19.8533 17.9658C19.8533 18.0521 19.8353 18.1376 19.8004 18.2166C19.7655 18.2956 19.7144 18.3665 19.6505 18.4247C19.5866 18.483 19.5112 18.5273 19.4292 18.5549C19.3471 18.5825 19.2602 18.5928 19.174 18.5851H19.2092Z" />
<path d="M23.5825 33.7149L23.1764 34.338L23.1846 34.3432L23.5825 33.7149ZM27.9545 33.9255L28.698 33.909L28.6789 33.0483L27.8301 33.1923L27.9545 33.9255ZM28.0054 36.2132L28.1946 36.9324L28.7619 36.7831L28.7488 36.1967L28.0054 36.2132ZM22.268 36.3221L22.4349 35.5974L22.4303 35.5964L22.268 36.3221ZM19.4356 35.0585L19.9168 34.4914L19.9157 34.4905L19.4356 35.0585ZM18.4116 32.7345L19.1553 32.7382V32.7345H18.4116ZM18.7675 31.1077L18.1002 30.7795L18.0997 30.7805L18.7675 31.1077ZM21.0479 29.1613L21.3117 29.8567L21.3145 29.8556L21.0479 29.1613ZM28.354 28.9725L29.0954 29.0303L29.1443 28.4023L28.5329 28.2507L28.354 28.9725ZM28.1724 31.3038L28.0339 32.0344L28.8494 32.189L28.9138 31.3615L28.1724 31.3038ZM26.1897 30.3495C25.0737 30.3495 24.1355 30.4687 23.4502 30.7701C23.099 30.9245 22.7795 31.1418 22.5469 31.4487C22.3069 31.7652 22.1925 32.134 22.1925 32.5239H23.6798C23.6798 32.4368 23.7009 32.3884 23.7321 32.3472C23.7706 32.2964 23.8578 32.2156 24.0489 32.1316C24.4481 31.9561 25.1368 31.8368 26.1897 31.8368V30.3495ZM22.1925 32.5239C22.1925 33.2892 22.5355 33.9203 23.1765 34.338L23.9885 33.0919C23.7677 32.9479 23.6798 32.785 23.6798 32.5239H22.1925ZM23.1846 34.3432C23.7923 34.728 24.5935 34.8726 25.4925 34.8726V33.3852C24.7164 33.3852 24.2443 33.2537 23.9804 33.0866L23.1846 34.3432ZM25.4925 34.8726C26.375 34.8726 27.2374 34.8015 28.0789 34.6587L27.8301 33.1923C27.0739 33.3207 26.2949 33.3852 25.4925 33.3852V34.8726ZM27.211 33.942L27.2619 36.2297L28.7488 36.1967L28.698 33.909L27.211 33.942ZM27.8161 35.494C26.9659 35.7178 26.0281 35.8327 24.9987 35.8327V37.32C26.1383 37.32 27.205 37.1928 28.1946 36.9324L27.8161 35.494ZM24.9987 35.8327C23.9482 35.8327 23.0981 35.7501 22.4349 35.5974L22.1011 37.0469C22.9098 37.2331 23.8801 37.32 24.9987 37.32V35.8327ZM22.4303 35.5964C21.7205 35.4376 21.2078 35.269 20.8659 35.102L20.2132 36.4384C20.704 36.6781 21.3436 36.8774 22.1057 37.0479L22.4303 35.5964ZM20.8659 35.102C20.4993 34.9229 20.1845 34.7185 19.9168 34.4914L18.9545 35.6255C19.3259 35.9407 19.747 36.2108 20.2132 36.4384L20.8659 35.102ZM19.9157 34.4905C19.4103 34.0634 19.1515 33.5053 19.1553 32.7382L17.668 32.7308C17.6621 33.9003 18.0859 34.8915 18.9556 35.6265L19.9157 34.4905ZM19.1553 32.7345C19.1553 32.2345 19.2534 31.8061 19.4353 31.4349L18.0997 30.7805C17.8071 31.3776 17.668 32.0337 17.668 32.7345H19.1553ZM19.4348 31.4359C19.7731 30.748 20.3705 30.2138 21.3117 29.8566L20.7841 28.466C19.5562 28.932 18.6333 29.6953 18.1002 30.7795L19.4348 31.4359ZM21.3145 29.8556C22.3039 29.4757 23.4081 29.2805 24.6356 29.2805V27.7931C23.2485 27.7931 21.9609 28.0142 20.7814 28.4671L21.3145 29.8556ZM24.6356 29.2805C25.8874 29.2805 27.0665 29.4195 28.175 29.6943L28.5329 28.2507C27.2981 27.9445 25.9982 27.7931 24.6356 27.7931V29.2805ZM27.6125 28.9148L27.431 31.246L28.9138 31.3615L29.0954 29.0303L27.6125 28.9148ZM28.3109 30.5731C27.5371 30.4264 26.8285 30.3495 26.1897 30.3495V31.8368C26.7129 31.8368 27.3261 31.9003 28.0339 32.0344L28.3109 30.5731ZM35.567 31.7613L35.5629 32.505L36.3187 32.5092L36.3107 31.7534L35.567 31.7613ZM35.2475 30.7954L34.7414 31.3404L34.7479 31.3463L35.2475 30.7954ZM33.3956 30.868L33.9106 31.4045L33.9161 31.3992L33.3956 30.868ZM32.9453 31.7468L32.2115 31.6262L32.0702 32.4856L32.9412 32.4905L32.9453 31.7468ZM38.4139 35.7121L38.8632 36.3047L39.1305 36.1021L39.1555 35.7676L38.4139 35.7121ZM36.8089 36.3076L36.649 35.5813L36.6447 35.5823L36.8089 36.3076ZM31.2313 36.1043L30.9777 36.8034L30.9838 36.8055L31.2313 36.1043ZM29.9604 35.4289L29.4988 36.012L29.5078 36.0189L29.9604 35.4289ZM29.1107 34.3613L28.4441 34.6909L28.4455 34.6939L29.1107 34.3613ZM29.9822 29.8513L30.4767 30.4067L30.4771 30.4064L29.9822 29.8513ZM36.7799 29.0451L37.0773 28.3635L37.0703 28.3605L36.7799 29.0451ZM38.4865 30.6138L37.8177 30.939L37.8197 30.9431L38.4865 30.6138ZM38.777 31.9138L39.5188 31.9678L39.5207 31.9408V31.9138H38.777ZM38.6899 33.1121L38.6862 33.8558L39.3812 33.8592L39.4316 33.1661L38.6899 33.1121ZM32.8 33.0831L32.8037 32.3394L31.8335 32.3346L32.0809 33.2727L32.8 33.0831ZM33.6425 34.1216L33.2765 34.769L33.2795 34.7707L33.6425 34.1216ZM38.1597 33.8674V33.1238H38.0111L37.8739 33.1809L38.1597 33.8674ZM38.5519 33.8674L39.2935 33.9229L39.3533 33.1238H38.5519V33.8674ZM36.3107 31.7534C36.3049 31.2155 36.1813 30.6383 35.7471 30.2445L34.7479 31.3463C34.7391 31.3383 34.7562 31.3478 34.7775 31.4121C34.8 31.4802 34.8215 31.5939 34.8234 31.7692L36.3107 31.7534ZM35.7535 30.2504C35.3632 29.888 34.8512 29.7685 34.3469 29.7685V31.2558C34.6367 31.2558 34.725 31.3251 34.7415 31.3404L35.7535 30.2504ZM34.3469 29.7685C33.7931 29.7685 33.278 29.942 32.875 30.3369L33.9161 31.3992C33.9973 31.3196 34.1164 31.2558 34.3469 31.2558V29.7685ZM32.8805 30.3315C32.5144 30.683 32.2938 31.1255 32.2115 31.6262L33.6791 31.8674C33.713 31.6612 33.7925 31.5179 33.9106 31.4045L32.8805 30.3315ZM32.9412 32.4905L35.5629 32.505L35.5712 31.0176L32.9494 31.0031L32.9412 32.4905ZM37.9647 35.1195C37.8016 35.243 37.404 35.4151 36.649 35.5813L36.9688 37.0339C37.7535 36.8612 38.4258 36.6363 38.8632 36.3047L37.9647 35.1195ZM36.6447 35.5823C35.9241 35.7454 35.2313 35.8254 34.5648 35.8254V37.3127C35.3509 37.3127 36.1541 37.2184 36.9731 37.0329L36.6447 35.5823ZM34.5648 35.8254C33.864 35.8254 33.2868 35.7923 32.8266 35.7304L32.6282 37.2044C33.1751 37.278 33.8228 37.3127 34.5648 37.3127V35.8254ZM32.8266 35.7304C32.3752 35.6696 31.9261 35.5608 31.4789 35.403L30.9838 36.8055C31.5243 36.9963 32.0726 37.1296 32.6282 37.2044L32.8266 35.7304ZM31.4849 35.4052C31.0502 35.2474 30.6964 35.0562 30.4131 34.8388L29.5078 36.0189C29.9313 36.3438 30.4248 36.6028 30.9777 36.8034L31.4849 35.4052ZM30.422 34.8458C30.1667 34.6437 29.9498 34.3765 29.7759 34.0287L28.4455 34.6939C28.7074 35.2176 29.0569 35.6621 29.4988 36.0119L30.422 34.8458ZM29.7773 34.0316C29.6209 33.7153 29.5276 33.308 29.5276 32.7853H28.0402C28.0402 33.4827 28.1648 34.1261 28.4441 34.6909L29.7773 34.0316ZM29.5276 32.7853C29.5276 32.2621 29.6219 31.8001 29.8002 31.3892L28.4358 30.7971C28.1686 31.4126 28.0402 32.0787 28.0402 32.7853H29.5276ZM29.8002 31.3892C29.9876 30.9572 30.2173 30.6377 30.4767 30.4067L29.4877 29.2959C29.0402 29.6943 28.6937 30.2027 28.4358 30.7971L29.8002 31.3892ZM30.4771 30.4064C31.2764 29.6937 32.4956 29.2805 34.2525 29.2805V27.7931C32.2814 27.7931 30.6537 28.2562 29.4873 29.2962L30.4771 30.4064ZM34.2525 29.2805C35.0409 29.2805 35.7844 29.4307 36.4894 29.7298L37.0703 28.3605C36.1776 27.9818 35.2362 27.7931 34.2525 27.7931V29.2805ZM36.4824 29.7268C37.1405 30.0139 37.5659 30.421 37.8177 30.939L39.1554 30.2887C38.7294 29.4123 38.0169 28.7736 37.0773 28.3635L36.4824 29.7268ZM37.8197 30.9431C37.9586 31.2244 38.0334 31.5437 38.0334 31.9138H39.5207C39.5207 31.335 39.4018 30.7876 39.1534 30.2846L37.8197 30.9431ZM38.0353 31.8599L37.9482 33.0582L39.4316 33.1661L39.5188 31.9678L38.0353 31.8599ZM38.6936 32.3685L32.8037 32.3394L32.7964 33.8267L38.6862 33.8558L38.6936 32.3685ZM32.0809 33.2727C32.2548 33.932 32.68 34.4319 33.2766 34.769L34.0084 33.4742C33.7141 33.3078 33.5777 33.1154 33.5191 32.8934L32.0809 33.2727ZM33.2795 34.7707C33.8827 35.108 34.637 35.2429 35.4799 35.2429V33.7556C34.7735 33.7556 34.3028 33.6388 34.0054 33.4725L33.2795 34.7707ZM35.4799 35.2429C36.3844 35.2429 37.3778 34.9984 38.4455 34.554L37.8739 33.1809C36.9178 33.5789 36.1247 33.7556 35.4799 33.7556V35.2429ZM38.1597 34.6111H38.5519V33.1238H38.1597V34.6111ZM37.8103 33.812L37.6723 35.6566L39.1555 35.7676L39.2935 33.9229L37.8103 33.812Z"/>
</symbol>
<symbol id="burger" viewBox="0 0 32 32">
<path d="M26.7333 14H5.26667C4.56711 14 4 14.4253 4 14.95V15.05C4 15.5747 4.56711 16 5.26667 16H26.7333C27.4329 16 28 15.5747 28 15.05V14.95C28 14.4253 27.4329 14 26.7333 14Z"/>
<path d="M26.7333 20H5.26667C4.56711 20 4 20.4253 4 20.95V21.05C4 21.5747 4.56711 22 5.26667 22H26.7333C27.4329 22 28 21.5747 28 21.05V20.95C28 20.4253 27.4329 20 26.7333 20Z"/>
<path d="M26.7333 8H5.26667C4.56711 8 4 8.42533 4 8.95V9.05C4 9.57467 4.56711 10 5.26667 10H26.7333C27.4329 10 28 9.57467 28 9.05V8.95C28 8.42533 27.4329 8 26.7333 8Z"/>
</symbol>

<symbol id="points-first" viewBox="0 0 107 34">
<ellipse rx="2.64285" ry="2.81563" transform="matrix(0.986896 -0.161679 0.142011 0.989912 85.5813 17.9821)"/>
<ellipse rx="2.64285" ry="2.81563" transform="matrix(0.986896 -0.161679 0.142011 0.989912 90.6995 13.3392)"/>
<ellipse rx="2.64285" ry="2.81563" transform="matrix(0.986896 -0.161679 0.142011 0.989912 96.6204 8.09052)"/>
<ellipse rx="2.64285" ry="2.81563" transform="matrix(0.986896 -0.161679 0.142011 0.989912 102.173 3.37726)"/>
<ellipse cx="2.71977" cy="17.5514" rx="2.71977" ry="2.81979"/>
<ellipse cx="8.61137" cy="13.7916" rx="2.71977" ry="2.81979"/>
<ellipse cx="15.4131" cy="9.56197" rx="2.71977" ry="2.81979"/>
<ellipse cx="21.7579" cy="5.80172" rx="2.71977" ry="2.81979"/>
<ellipse cx="5.44047" cy="24.6005" rx="2.71977" ry="2.81979"/>
<ellipse cx="11.3331" cy="20.8408" rx="2.71977" ry="2.81979"/>
<ellipse cx="18.1338" cy="16.611" rx="2.71977" ry="2.81979"/>
<ellipse cx="24.4786" cy="12.8513" rx="2.71977" ry="2.81979"/>
<ellipse cx="12.2383" cy="28.3598" rx="2.71977" ry="2.81979"/>
<ellipse cx="18.1319" cy="24.6004" rx="2.71977" ry="2.81979"/>
<ellipse cx="24.9307" cy="20.3707" rx="2.71977" ry="2.81979"/>
<ellipse cx="31.2764" cy="16.611" rx="2.71977" ry="2.81979"/>
<ellipse cx="19.9434" cy="30.7105" rx="2.71977" ry="2.81979"/>
<ellipse cx="25.836" cy="26.95" rx="2.71977" ry="2.81979"/>
<ellipse cx="32.6377" cy="22.7208" rx="2.71977" ry="2.81979"/>
<ellipse cx="38.9815" cy="18.961" rx="2.71977" ry="2.81979"/>
<ellipse cx="29.917" cy="31.1805" rx="2.71977" ry="2.81979"/>
<ellipse cx="35.8096" cy="27.4207" rx="2.71977" ry="2.81979"/>
<ellipse cx="42.6104" cy="23.1908" rx="2.71977" ry="2.81979"/>
<ellipse cx="48.9551" cy="19.4315" rx="2.71977" ry="2.81979"/>
<ellipse cx="41.7041" cy="31.1803" rx="2.71977" ry="2.81979"/>
<ellipse cx="47.5957" cy="27.4205" rx="2.71977" ry="2.81979"/>
<ellipse cx="54.3956" cy="23.1905" rx="2.71977" ry="2.81979"/>
<ellipse cx="60.7422" cy="19.4312" rx="2.71977" ry="2.81979"/>
<ellipse cx="51.6739" cy="30.7103" rx="2.71977" ry="2.81979"/>
<ellipse cx="57.5665" cy="26.95" rx="2.71977" ry="2.81979"/>
<ellipse cx="64.3672" cy="22.7208" rx="2.71977" ry="2.81979"/>
<ellipse cx="70.712" cy="18.961" rx="2.71977" ry="2.81979"/>
<ellipse cx="63.0059" cy="30.24" rx="2.71977" ry="2.81979"/>
<ellipse cx="68.8985" cy="26.4804" rx="2.71977" ry="2.81979"/>
<ellipse cx="75.6993" cy="22.2509" rx="2.71977" ry="2.81979"/>
<ellipse cx="82.044" cy="18.4909" rx="2.71977" ry="2.81979"/>
<ellipse cx="73.4317" cy="18.0211" rx="2.71977" ry="2.81979"/>
<ellipse cx="79.3243" cy="14.2614" rx="2.71977" ry="2.81979"/>
<ellipse cx="86.1241" cy="10.0317" rx="2.71977" ry="2.81979"/>
<ellipse cx="92.4698" cy="6.27169" rx="2.71977" ry="2.81979"/>
</symbol>

<symbol id="points-second" viewBox="0 0 127 50">
<ellipse cx="48.9928" cy="46.2757" rx="2.60019" ry="2.77865" />
<ellipse cx="54.6275" cy="42.5708" rx="2.60019" ry="2.77865" />
<ellipse cx="61.1256" cy="38.4026" rx="2.60019" ry="2.77865" />
<ellipse cx="67.1949" cy="34.6976" rx="2.60019" ry="2.77865" />
<ellipse cx="63.7262" cy="44.4233" rx="2.60019" ry="2.77865" />
<ellipse cx="69.3609" cy="40.7185" rx="2.60019" ry="2.77865" />
<ellipse cx="75.86" cy="36.5505" rx="2.60019" ry="2.77865" />
<ellipse cx="81.9293" cy="32.8459" rx="2.60019" ry="2.77865" />
<ellipse cx="76.2955" cy="43.0343" rx="2.60019" ry="2.77865" />
<ellipse cx="81.9303" cy="39.3289" rx="2.60019" ry="2.77865" />
<ellipse cx="88.4303" cy="35.1611" rx="2.60019" ry="2.77865" />
<ellipse cx="94.4957" cy="31.4569" rx="2.60019" ry="2.77865" />
<ellipse cx="88.4283" cy="41.182" rx="2.60019" ry="2.77865" />
<ellipse cx="94.0611" cy="37.4768" rx="2.60019" ry="2.77865" />
<ellipse cx="100.561" cy="33.3089" rx="2.60019" ry="2.77865" />
<ellipse cx="106.629" cy="29.6041" rx="2.60019" ry="2.77865" />
<ellipse cx="92.3307" cy="46.2757" rx="2.60019" ry="2.77865" />
<ellipse cx="97.9654" cy="42.5708" rx="2.60019" ry="2.77865" />
<ellipse cx="105.765" cy="46.7387" rx="2.60019" ry="2.77865" />
<ellipse cx="104.465" cy="38.4026" rx="2.60019" ry="2.77865" />
<ellipse cx="112.266" cy="42.5708" rx="2.60019" ry="2.77865" />
<ellipse cx="118.334" cy="46.7387" rx="2.60019" ry="2.77865" />
<ellipse cx="110.533" cy="34.6976" rx="2.60019" ry="2.77865" />
<ellipse cx="118.334" cy="38.8654" rx="2.60019" ry="2.77865" />
<ellipse cx="124.401" cy="43.0338" rx="2.60019" ry="2.77865" />
<ellipse cx="22.5592" cy="15.711" rx="2.60019" ry="2.77865" />
<ellipse cx="28.192" cy="12.0057" rx="2.60019" ry="2.77865" />
<ellipse cx="34.6939" cy="7.83822" rx="2.60019" ry="2.77865" />
<ellipse cx="40.7594" cy="4.13339" rx="2.60019" ry="2.77865" />
<ellipse cx="11.7242" cy="15.2469" rx="2.60019" ry="2.77865" />
<ellipse cx="17.357" cy="11.5423" rx="2.60019" ry="2.77865" />
<ellipse cx="23.857" cy="7.37485" rx="2.60019" ry="2.77865" />
<ellipse cx="29.9244" cy="3.67001" rx="2.60019" ry="2.77865" />
<ellipse cx="35.9918" cy="46.2757" rx="2.60019" ry="2.77865" />
<ellipse cx="41.6246" cy="42.5708" rx="2.60019" ry="2.77865" />
<ellipse cx="48.1246" cy="38.4026" rx="2.60019" ry="2.77865" />
<ellipse cx="54.193" cy="34.6976" rx="2.60019" ry="2.77865" />
<ellipse cx="29.0582" cy="43.4975" rx="2.60019" ry="2.77865" />
<ellipse cx="34.692" cy="39.7926" rx="2.60019" ry="2.77865" />
<ellipse cx="41.192" cy="35.6244" rx="2.60019" ry="2.77865" />
<ellipse cx="47.2594" cy="31.9196" rx="2.60019" ry="2.77865" />
<ellipse cx="31.6588" cy="33.7721" rx="2.60019" ry="2.77865" />
<ellipse cx="37.2916" cy="30.0672" rx="2.60019" ry="2.77865" />
<ellipse cx="43.7936" cy="25.899" rx="2.60019" ry="2.77865" />
<ellipse cx="49.86" cy="22.1944" rx="2.60019" ry="2.77865" />
<ellipse cx="31.6588" cy="17.5631" rx="2.60019" ry="2.77865" />
<ellipse cx="37.2916" cy="13.8578" rx="2.60019" ry="2.77865" />
<ellipse cx="43.7936" cy="9.69028" rx="2.60019" ry="2.77865" />
<ellipse cx="49.86" cy="5.9852" rx="2.60019" ry="2.77865" />
<ellipse cx="30.358" cy="26.3629" rx="2.60019" ry="2.77865" />
<ellipse cx="35.9928" cy="22.6574" rx="2.60019" ry="2.77865" />
<ellipse cx="42.4918" cy="18.4897" rx="2.60019" ry="2.77865" />
<ellipse cx="48.5592" cy="14.785" rx="2.60019" ry="2.77865" />
<ellipse cx="3.05625" cy="12.9317" rx="2.60019" ry="2.77865" />
<ellipse cx="8.69101" cy="9.2269" rx="2.60019" ry="2.77865" />
<ellipse cx="15.191" cy="5.05917" rx="2.60019" ry="2.77865" />
<path d="M14.7574 15.7104C16.1935 15.7104 17.3576 14.4663 17.3576 12.9317C17.3576 11.3971 16.1935 10.1531 14.7574 10.1531C13.3214 10.1531 12.1572 11.3971 12.1572 12.9317C12.1572 14.4663 13.3214 15.7104 14.7574 15.7104Z" />
</symbol>




</defs>
</svg>
