<svg aria-hidden="true" style="position: absolute; width: 0; height: 0; overflow: hidden;" version="1.1" xmlns="http://www.w3.org/2000/svg" xmlns:xlink="http://www.w3.org/1999/xlink">
<defs>
<symbol id="icon-arrow" viewBox="0 0 82 32">
<path d="M81.414 17.414c0.781-0.781 0.781-2.047 0-2.828l-12.728-12.728c-0.781-0.781-2.047-0.781-2.828 0s-0.781 2.047 0 2.828l11.314 11.314-11.314 11.314c-0.781 0.781-0.781 2.047 0 2.828s2.047 0.781 2.828 0l12.728-12.728zM0 18h80v-4h-80v4z"></path>
</symbol>
<symbol id="icon-ice-crema" viewBox="0 0 32 32">
<path d="M16.108 0.107c0.080 0.215 0.241 1.252 0.241 1.573 0 0.003 0 0.007 0 0.011 0 0.818-0.318 1.561-0.838 2.114l0.001-0.002c-0.449 0.482-0.898 0.749-1.975 1.185-1.198 0.489-1.694 0.783-2.256 1.339-0.569 0.569-0.904 1.191-1.024 1.922-0.134 0.796 0 1.358 0.408 1.68l0.207 0.16-0.328 0.208c-0.662 0.436-1.867 1.46-2.075 1.774-0.402 0.603-0.362 1.164 0.093 1.393l0.214 0.107-0.241 0.228c-0.362 0.341-0.436 0.576-0.382 1.191 0.034 0.409 0.020 0.63-0.073 0.964-0.114 0.436-0.114 0.442 0.033 0.75 0.148 0.301 0.563 0.683 0.938 0.844 0.18 0.080 0.187 0.107 0.228 0.723 0.020 0.356 0.053 1.486 0.080 2.517 0.020 1.031 0.068 1.975 0.107 2.089 0.034 0.12 0.161 0.281 0.276 0.361 0.388 0.268 0.656 0.556 0.829 0.891 0.195 0.382 0.409 1.319 1.058 4.559l0.455 2.276 0.282 0.268c0.535 0.529 1.56 0.77 3.247 0.77 1.693 0 2.704-0.235 3.24-0.764l0.288-0.274 0.414-2.109c0.916-4.612 0.997-4.867 1.714-5.436 0.22-0.181 0.436-0.402 0.475-0.502 0.047-0.114 0.094-0.991 0.127-2.316 0.027-1.178 0.068-2.343 0.094-2.591l0.040-0.448 0.436-0.329c0.548-0.421 0.763-0.803 0.763-1.392-0.006-0.696-0.462-1.46-1.292-2.142l-0.396-0.321 0.195-0.276c0.81-1.117 0.301-2.664-1.205-3.694l-0.455-0.315 0.167-0.174c0.743-0.796 0.864-3.173 0.241-4.827-0.374-0.984-1.232-2.055-2.283-2.845-0.514-0.388-1.934-1.245-2.060-1.245-0.027 0-0.027 0.047-0.006 0.107zM18.036 2.444c0.356 0.348 0.783 0.823 0.951 1.064 0.997 1.393 1.252 3.14 0.649 4.426-0.241 0.522-0.964 1.298-1.634 1.76-1.024 0.71-3.327 1.902-4.933 2.557-2.584 1.052-4.084 1.252-4.258 0.563-0.068-0.261 0.127-0.468 0.951-1.018 0.742-0.508 4.076-2.986 4.136-3.086 0.020-0.027-0.321 0.127-0.749 0.341-1.452 0.737-2.142 0.596-2.108-0.428 0.020-0.743 0.556-1.587 1.298-2.068 0.188-0.12 0.771-0.388 1.307-0.603 1.76-0.709 2.296-1.071 2.892-1.961 0.356-0.529 0.743-1.507 0.77-1.922 0.007-0.147 0.034-0.261 0.053-0.261s0.322 0.288 0.676 0.636zM19.863 10.050c0.489 0.274 0.997 0.743 1.218 1.111 0.389 0.662 0.188 1.325-0.649 2.169-0.91 0.924-2.463 1.808-4.171 2.37-1.573 0.516-3.079 0.756-5.236 0.83l-1.339 0.047 0.871 0.053c1.124 0.074 3.3 0.007 4.143-0.127 2.243-0.356 4.151-1.065 5.516-2.042 0.308-0.221 0.629-0.402 0.716-0.402 0.221 0 1.185 0.924 1.38 1.312 0.107 0.221 0.133 0.382 0.114 0.596-0.1 0.891-1.186 1.366-3.803 1.68-3.2 0.382-7.384 0.007-9.172-0.816-0.844-0.388-0.984-0.61-0.77-1.198 0.067-0.188 0.080-0.409 0.053-0.724-0.034-0.415-0.027-0.468 0.12-0.622 0.335-0.362 0.898-0.569 2.96-1.092 0.723-0.187 1.707-0.482 2.175-0.656 1.138-0.415 3.274-1.493 4.264-2.156 0.931-0.616 1.065-0.643 1.607-0.334zM10.972 18.244c1.406 0.409 2.652 0.529 4.968 0.482 1.74-0.033 2.812-0.14 4.357-0.415 0.316-0.053 0.589-0.1 0.623-0.1 0.074 0 0.053 2.571-0.027 3.247-0.087 0.716-0.282 1.272-0.489 1.406-0.214 0.14-1.285 0.288-2.718 0.368-2.939 0.16-5.958 0-6.895-0.375-0.508-0.207-0.563-0.476-0.569-2.959 0-1.653 0.013-1.881 0.1-1.847 0.053 0.020 0.348 0.107 0.649 0.194zM12.559 23.934c0.482 0.060 1.004 0.12 1.164 0.14l0.289 0.034-0.255 0.281c-0.328 0.355-0.83 1.064-1.011 1.426-0.207 0.415-0.275 0.442-0.582 0.275l-0.261-0.148-0.147-0.91c-0.078-0.506-0.143-0.863-0.216-1.217l0.028 0.165c-0.060-0.173-0.121-0.173 0.99-0.046zM19.696 23.86c0 0.013-0.034 0.187-0.068 0.382-0.040 0.2-0.207 1.292-0.374 2.429-0.341 2.377-0.569 3.494-0.777 3.869-0.288 0.502-0.978 0.796-2.095 0.891-0.436 0.034-1.748-0.053-1.821-0.121-0.053-0.060 1.098-1.486 1.279-1.58 0.167-0.094 0.213-0.080 0.782 0.213 0.663 0.349 0.998 0.403 0.998 0.181s-0.174-0.436-0.603-0.729c-0.395-0.282-0.535-0.443-0.535-0.63 0-0.053 0.194-0.355 0.428-0.669s0.575-0.817 0.749-1.118l0.329-0.542 0.3 0.041c0.609 0.087 0.77 0.080 0.75-0.053-0.013-0.068-0.127-0.261-0.255-0.422-0.127-0.167-0.228-0.335-0.228-0.368 0-0.127 0.622-1.299 0.824-1.547 0.174-0.214 0.315-0.322 0.315-0.228zM15.512 24.396c0.334 0.221 1.593 1.313 1.673 1.446 0.034 0.060-1.258 2.082-1.513 2.37-0.027 0.034-0.167-0.033-0.308-0.14-0.312-0.235-0.692-0.499-1.080-0.752l-0.085-0.052-0.904-0.596 0.542-0.917c0.964-1.613 0.944-1.587 1.151-1.587 0.107 0 0.341 0.1 0.523 0.228zM18.049 24.636c-0.235 0.288-0.428 0.469-0.508 0.469-0.174 0-0.456-0.154-0.931-0.502l-0.396-0.288 0.791-0.047c0.348-0.013 0.665-0.034 0.98-0.065l-0.064 0.005c0.536-0.087 0.536-0.080 0.128 0.428zM12.988 27.857c0.616 0.241 1.66 0.81 1.962 1.065 0.214 0.173 0.214 0.187 0.127 0.401-0.141 0.281-0.279 0.516-0.43 0.741l0.015-0.024c-0.128 0.191-0.277 0.434-0.417 0.682l-0.032 0.061c-0.213 0.415-0.281 0.449-0.723 0.329-0.476-0.141-0.729-0.382-0.863-0.818-0.181-0.609-0.469-2.329-0.436-2.597 0.013-0.1 0.294-0.040 0.796 0.161z"></path>
</symbol>
<symbol id="icon-cow" viewBox="0 0 32 32">
<path d="M6.169 0.192c-0.262 0.226-1.008 1.781-1.276 2.631-0.318 1.052-0.427 1.842-0.384 2.932 0.058 1.556 0.449 2.736 1.31 3.969 0.225 0.323 0.406 0.601 0.406 0.624 0 0.015-0.138 0.029-0.311 0.029-0.747 0-2.144 0.249-3.215 0.572-1.7 0.511-2.7 1.405-2.7 2.405 0 0.354 0.318 0.955 0.659 1.262 0.659 0.595 2.1 1.158 3.649 1.428 0.536 0.098 2.129 0.263 2.484 0.271 0.065 0 0.087 0.346 0.087 1.481 0 0.977 0.036 1.736 0.108 2.202 0.26 1.668 1.071 3.436 2.142 4.683l0.37 0.428-0.246 0.399c-0.362 0.564-0.5 0.992-0.542 1.631-0.109 1.533 0.846 2.893 2.693 3.849 3.517 1.826 8.984 1.111 11.033-1.444 0.999-1.248 1.115-2.676 0.325-3.969l-0.246-0.398 0.442-0.533c0.826-0.993 1.361-1.985 1.766-3.24 0.34-1.068 0.471-2.098 0.471-3.729 0-0.744 0.021-1.36 0.058-1.36 0.333-0.008 1.933-0.18 2.44-0.271 1.556-0.27 2.969-0.827 3.649-1.428 0.34-0.308 0.659-0.909 0.659-1.263 0-1.113-1.129-2.014-3.229-2.556-0.687-0.18-1.983-0.398-2.613-0.436l-0.297-0.023 0.326-0.451c0.405-0.549 0.912-1.616 1.108-2.316 0.55-2.021 0.21-4.374-0.97-6.622-0.493-0.932-0.834-1.149-1.231-0.782-0.152 0.144-0.218 0.339-0.362 1.045-0.449 2.248-1.282 4.029-2.498 5.345l-0.536 0.587h-11.453l-0.478-0.519c-1.187-1.308-2.049-3.157-2.498-5.412-0.145-0.707-0.21-0.901-0.362-1.044-0.239-0.218-0.471-0.211-0.738 0.022zM7.095 4.65c0.384 0.842 0.862 1.631 1.426 2.36l0.449 0.579-0.47 0.354c-0.442 0.338-0.854 0.819-1.173 1.368l-0.137 0.248-0.348-0.474c-1.188-1.639-1.484-3.645-0.854-5.728 0.304-1.007 0.297-0.999 0.572-0.127 0.131 0.42 0.377 1.060 0.536 1.42zM25.94 3.064c0.262 0.728 0.414 1.569 0.414 2.445 0 0.031-0 0.062-0.001 0.093l0-0.005c0 1.367-0.362 2.524-1.122 3.563l-0.34 0.466-0.253-0.428c-0.328-0.556-0.752-1.019-1.254-1.382l-0.013-0.009c-0.196-0.127-0.347-0.255-0.347-0.27 0-0.022 0.137-0.196 0.311-0.383 0.804-0.895 1.665-2.503 2.092-3.886 0.13-0.428 0.26-0.782 0.282-0.782s0.131 0.263 0.231 0.58zM22.241 8.558c0.804 0.338 1.571 1.308 1.694 2.127 0.065 0.451 0.217 0.737 0.412 0.782 0.087 0.014 0.688 0.068 1.332 0.112 2.287 0.151 4.090 0.64 4.858 1.308 0.355 0.316 0.318 0.578-0.108 0.901-0.854 0.647-2.7 1.135-4.583 1.218-1.245 0.053-1.506 0.091-1.673 0.263-0.123 0.128-0.137 0.263-0.137 1.624 0 1.842-0.094 2.901-0.326 3.758-0.325 1.164-0.97 2.405-1.723 3.284l-0.311 0.361-0.644-0.383c-0.687-0.426-1.485-0.76-2.335-0.958l-0.054-0.011c-2.744-0.655-5.778-0.256-7.819 1.029l-0.471 0.3-0.297-0.354c-0.405-0.473-1.043-1.488-1.296-2.060-0.557-1.292-0.724-2.345-0.724-4.66 0-2.248 0.116-2.083-1.549-2.172-2.129-0.113-3.751-0.496-4.772-1.143-0.753-0.48-0.629-0.909 0.42-1.413 1.006-0.488 2.388-0.781 4.308-0.901 1.492-0.098 1.527-0.12 1.665-0.842 0.203-1.090 1.006-1.992 2.020-2.277 0.253-0.076 1.672-0.091 6.016-0.083l5.684 0.015 0.412 0.172zM18.172 24.117c1.774 0.436 3.099 1.248 3.671 2.255 0.138 0.233 0.196 0.474 0.224 0.842 0.029 0.459 0.008 0.572-0.166 0.948-0.804 1.707-3.757 2.834-6.762 2.578-3.612-0.3-5.988-2.315-5.053-4.292 0.507-1.068 2.222-2.090 4.032-2.391 0.297-0.044 0.594-0.098 0.652-0.112s0.71-0.015 1.449 0c1.005 0.022 1.491 0.068 1.954 0.172z"></path>
<path d="M10.99 12.321c-0.45 0.151-0.754 0.347-1.159 0.752-0.355 0.338-0.383 0.736-0.086 0.977 0.276 0.225 0.535 0.196 0.868-0.098 0.42-0.368 0.746-0.518 1.151-0.518 0.405-0.008 0.716 0.135 1.151 0.518 0.333 0.293 0.594 0.323 0.868 0.098 0.145-0.12 0.188-0.218 0.188-0.444 0-0.232-0.051-0.338-0.304-0.593-0.716-0.721-1.781-0.999-2.679-0.692zM19.431 12.313c-0.462 0.173-1.057 0.564-1.295 0.857-0.232 0.286-0.24 0.609 0 0.85 0.238 0.255 0.528 0.24 0.876-0.045 0.854-0.707 1.492-0.729 2.281-0.076 0.203 0.173 0.434 0.308 0.507 0.308 0.355 0 0.644-0.316 0.644-0.692 0-0.24-0.601-0.796-1.144-1.060-0.601-0.293-1.317-0.346-1.868-0.142zM12.040 26.224c-0.21 0.203-0.283 0.496-0.174 0.729 0.080 0.187 0.203 0.263 0.702 0.398 0.225 0.060 0.319 0.135 0.398 0.323 0.101 0.249 0.109 0.249 0.667 0.271l0.557 0.022v-0.211c-0.007-0.3-0.174-0.736-0.391-1.036-0.253-0.347-0.695-0.572-1.195-0.617-0.34-0.030-0.427-0.015-0.564 0.121zM18.954 26.171c-0.362 0.098-0.884 0.587-1.028 0.969-0.072 0.201-0.121 0.435-0.137 0.677l-0 0.008c-0.015 0.323 0.014 0.398 0.188 0.556 0.427 0.376 0.992 0.083 0.992-0.518 0-0.293 0.217-0.496 0.601-0.571 0.405-0.076 0.551-0.241 0.557-0.624 0-0.504-0.449-0.699-1.173-0.496z"></path>
</symbol>
<symbol id="icon-weight" viewBox="0 0 32 32">
<path d="M14.178 0.547c-3.974 0.589-7.247 2.796-8.452 5.685-0.384 0.913-0.487 1.474-0.487 2.573 0.007 0.812 0.036 1.114 0.163 1.552 0.258 0.862 0.443 1.301 0.827 1.92l0.356 0.574-0.4 0.489c-3.154 3.924-3.501 9.444-0.871 13.793 0.982 1.632 2.586 3.235 4.151 4.169l0.466 0.273 12.743-0.108 0.302-0.165c1.057-0.596 2.548-1.926 3.383-3.004 1.208-1.569 2.064-3.472 2.413-5.546l0.010-0.074c0.118-0.74 0.118-2.933-0.007-3.63-0.377-2.148-1.182-3.988-2.452-5.62-0.244-0.309-0.436-0.568-0.436-0.589 0-0.014 0.133-0.237 0.288-0.489 0.354-0.564 0.649-1.216 0.85-1.907l0.014-0.055c0.199-0.719 0.199-2.516 0-3.235-0.709-2.551-2.836-4.679-5.843-5.851-0.843-0.331-2.284-0.683-3.214-0.797-0.864-0.1-2.999-0.080-3.804 0.043zM18.676 1.718c3.945 0.769 6.834 3.184 7.365 6.16 0.118 0.668 0.044 1.804-0.155 2.436-0.2 0.618-0.569 1.344-1.004 1.963-0.178 0.252-0.325 0.539-0.325 0.632s0.155 0.338 0.377 0.582c1.846 2.049 2.821 4.614 2.821 7.388-0.007 3.156-1.219 5.923-3.553 8.093-0.399 0.373-0.968 0.841-1.271 1.042l-0.554 0.373-12.211 0.051-0.473-0.302c-1.714-1.113-3.258-2.953-4.115-4.908-1.078-2.472-1.189-5.34-0.31-7.913 0.466-1.337 1.086-2.429 2.031-3.58 0.385-0.46 0.562-0.733 0.562-0.862 0-0.108-0.192-0.46-0.444-0.827-0.886-1.287-1.248-2.717-1.034-4.068 0.222-1.365 0.842-2.487 1.987-3.6 1.493-1.445 3.576-2.402 6.021-2.761 1.012-0.151 3.25-0.093 4.284 0.1z"></path>
<path d="M14.509 2.983c-3.029 0.496-5.4 2.178-6.176 4.385-0.178 0.496-0.206 0.69-0.206 1.401s0.029 0.907 0.206 1.402c0.111 0.316 0.318 0.756 0.459 0.978 0.384 0.618 0.554 0.64 1.315 0.18 1.094-0.674 2.368-1.19 3.727-1.474l0.078-0.014c0.916-0.187 2.674-0.258 3.671-0.143 1.558 0.18 3.251 0.74 4.602 1.538 0.385 0.222 0.776 0.409 0.872 0.409 0.562 0 1.278-1.617 1.278-2.875 0-2.796-2.675-5.189-6.464-5.786-0.805-0.129-2.586-0.129-3.361 0zM18.165 4.133c1.271 0.273 2.438 0.791 3.317 1.474 1.182 0.913 1.817 2.185 1.714 3.413-0.037 0.489-0.222 1.15-0.332 1.222-0.029 0.014-0.444-0.158-0.916-0.388-0.926-0.454-2.004-0.832-3.131-1.081l-0.097-0.018c-0.687-0.143-0.975-0.165-2.512-0.158-1.514 0-1.831 0.022-2.489 0.158-1.179 0.249-2.221 0.616-3.195 1.099l0.078-0.035c-1.101 0.524-1.042 0.532-1.242-0.116-0.258-0.84-0.096-1.955 0.407-2.796 0.266-0.445 0.996-1.186 1.529-1.552 1.012-0.698 1.899-1.013 3.804-1.359 0.391-0.071 2.563 0.029 3.065 0.137zM16.963 13.404c-0.207 0.26-0.207 0.504 0.007 0.712 0.14 0.137 0.281 0.172 0.791 0.209 1.034 0.075 1.983 0.38 2.815 0.865l-0.031-0.017c0.606 0.359 1.529 1.229 1.943 1.854 0.613 0.898 1.034 2.185 1.034 3.134 0 0.331 0.030 0.431 0.185 0.574 0.236 0.237 0.547 0.237 0.776 0 0.163-0.165 0.169-0.208 0.125-0.912-0.207-3.479-3.184-6.382-6.744-6.578l-0.74-0.043-0.162 0.202z"></path>
</symbol>
<symbol id="logo" viewBox="0 0 40 38">
<path d="M20.4058 16.7549C22.3215 11.5702 18.3544 8.73211 15.7248 6.86682C15.222 6.48574 14.7192 6.12973 14.3119 5.80381C13.584 5.19132 13.0479 4.38326 12.7671 3.47571C12.4863 2.56816 12.4728 1.59929 12.7281 0.684293C12.7543 0.58856 12.7537 0.487476 12.7262 0.392087C12.6987 0.296697 12.6455 0.210668 12.5724 0.143396C12.4992 0.0761238 12.4089 0.0301974 12.3114 0.0106302C12.2138 -0.008937 12.1127 -0.00139141 12.0192 0.0324434C11.1336 0.381861 10.3102 0.871156 9.58059 1.48155C8.87957 2.02055 8.31163 2.71247 7.92031 3.50428C7.52898 4.29609 7.32467 5.16675 7.32304 6.04951C6.82721 6.43932 6.38884 6.89675 6.02079 7.40836C5.34467 8.32879 5.00568 9.45271 5.06045 10.5924C4.25508 11.3301 3.65525 12.2634 3.31951 13.3013C2.98376 14.3392 2.92356 15.4462 3.1448 16.5142C2.82439 16.7072 2.5764 16.9998 2.43887 17.3471C2.30135 17.6943 2.28191 18.0769 2.38354 18.4362C2.48518 18.7955 2.70227 19.1116 3.00147 19.336C3.30067 19.5603 3.66544 19.6805 4.03977 19.6782H4.07497V22.6265C4.07497 22.9257 4.19416 23.2127 4.40632 23.4243C4.61847 23.6358 4.90623 23.7547 5.20627 23.7547H6.08616L7.51913 36.1398C7.54893 36.4155 7.67993 36.6705 7.88693 36.8557C8.09394 37.0408 8.3623 37.143 8.64036 37.1427H14.6035C14.8818 37.1421 15.1502 37.0396 15.3578 36.8548C15.5654 36.6699 15.6978 36.4155 15.7298 36.1398L17.1628 23.7547H18.0427C18.3427 23.7547 18.6304 23.6358 18.8426 23.4243C19.0548 23.2127 19.174 22.9257 19.174 22.6265V19.6782H19.2092C19.6639 19.6782 20.1 19.498 20.4215 19.1773C20.7431 18.8567 20.9237 18.4218 20.9237 17.9683C20.926 17.742 20.8826 17.5175 20.7963 17.3082C20.7099 17.0989 20.5822 16.909 20.4209 16.7498L20.4058 16.7549ZM7.49902 7.34819C8.22305 10.0609 11.0186 11.1289 13.5678 12.0816C13.6363 12.1237 13.7133 12.1502 13.7933 12.1592C13.8732 12.1683 13.9542 12.1597 14.0304 12.134C14.1067 12.1083 14.1763 12.0662 14.2344 12.0106C14.2925 11.9551 14.3376 11.8874 14.3665 11.8125C14.3954 11.7376 14.4074 11.6573 14.4017 11.5773C14.396 11.4972 14.3726 11.4194 14.3333 11.3493C14.2941 11.2793 14.2398 11.2187 14.1744 11.172C14.109 11.1252 14.0341 11.0934 13.9549 11.0788C11.2097 10.0408 8.62025 9.07308 8.42416 6.30022C8.37821 5.53799 8.52168 4.77625 8.84183 4.0826C9.16198 3.38895 9.64889 2.78485 10.2594 2.32394C10.6418 2.00659 11.0525 1.72463 11.4862 1.48155C11.4583 1.82865 11.4583 2.17742 11.4862 2.52451C11.5444 3.31909 11.7622 4.09389 12.1267 4.80283C12.4912 5.51176 12.995 6.14035 13.608 6.65121C14.0253 7.00722 14.5432 7.37326 15.1164 7.76437C16.4387 8.71205 17.9421 9.77006 18.8974 11.2041C19.4071 11.9396 19.7243 12.7905 19.82 13.6794C19.9157 14.5683 19.7869 15.4669 19.4455 16.2936H19.2343H17.2231C12.6426 16.2936 7.37835 15.03 6.33756 11.4899C6.13109 10.7616 6.13278 9.9903 6.34244 9.26292C6.5521 8.53553 6.9614 7.88104 7.52415 7.37326L7.49902 7.34819ZM11.6219 24.4417L13.3013 26.1164L11.6219 27.7912L9.9426 26.1064L11.6219 24.4417ZM15.4734 28.8391L14.0857 30.2231L12.4063 28.5483L14.0857 26.8786L15.5438 28.3277L15.4734 28.8391ZM11.6219 32.68L9.9426 31.0053L11.6219 29.3305L13.3013 31.0053L11.6219 32.68ZM10.8527 28.5583L9.17332 30.2331L7.77555 28.8391L7.71522 28.3377L9.17332 26.8886L10.8527 28.5583ZM8.39903 31.0053L8.06215 31.3412L7.97667 30.5791L8.39903 31.0053ZM8.22305 32.7201L9.17332 31.7724L11.0186 33.6277C11.028 33.6652 11.0398 33.702 11.0538 33.738H8.33868L8.22305 32.7201ZM14.0756 31.7724L15.0259 32.7201L14.9102 33.723H12.1197L14.0756 31.7724ZM15.1818 31.3412L14.8449 31.0053L15.2723 30.5791L15.1818 31.3412ZM15.6845 26.9588L14.8449 26.1064L15.9108 25.0434L15.6845 26.9588ZM14.0706 25.3442L12.4767 23.7597H15.6644L14.0706 25.3442ZM9.16831 25.3442L7.57443 23.7597H10.7622L9.16831 25.3442ZM14.5985 36.0546H8.64036C8.6314 36.0535 8.62305 36.0495 8.61667 36.0431C8.61029 36.0368 8.60623 36.0284 8.60516 36.0195L8.46438 34.8161H14.7795L14.6438 36.0195C14.6425 36.0292 14.6377 36.0382 14.6303 36.0447C14.6229 36.0511 14.6134 36.0547 14.6035 36.0546H14.5985ZM19.2092 18.5851H17.4594C17.3834 18.5778 17.3066 18.5864 17.2342 18.6104C17.1617 18.6345 17.095 18.6733 17.0385 18.7246C16.9819 18.7758 16.9367 18.8382 16.9058 18.9079C16.8749 18.9776 16.8589 19.0529 16.8589 19.1291C16.8589 19.2053 16.8749 19.2806 16.9058 19.3503C16.9367 19.4199 16.9819 19.4824 17.0385 19.5336C17.095 19.5849 17.1617 19.6237 17.2342 19.6478C17.3066 19.6718 17.3834 19.6804 17.4594 19.6731H18.0829V22.6215C18.0817 22.6312 18.0769 22.6402 18.0695 22.6467C18.0621 22.6531 18.0525 22.6567 18.0427 22.6566H5.18615C5.1763 22.6567 5.16676 22.6531 5.15934 22.6467C5.15193 22.6402 5.14716 22.6312 5.14593 22.6215V19.6731H15.1063C15.242 19.6601 15.3679 19.5972 15.4595 19.4966C15.5512 19.396 15.6019 19.265 15.6019 19.1291C15.6019 18.9932 15.5512 18.8622 15.4595 18.7616C15.3679 18.661 15.242 18.5981 15.1063 18.5851H4.04481C3.95857 18.5928 3.87165 18.5825 3.7896 18.5549C3.70756 18.5273 3.63217 18.483 3.56825 18.4247C3.50433 18.3665 3.45329 18.2956 3.41837 18.2166C3.38344 18.1376 3.3654 18.0521 3.3654 17.9658C3.3654 17.8794 3.38344 17.794 3.41837 17.715C3.45329 17.636 3.50433 17.5651 3.56825 17.5068C3.63217 17.4486 3.70756 17.4042 3.7896 17.3766C3.87165 17.349 3.95857 17.3388 4.04481 17.3465H5.18615C5.3218 17.3335 5.44772 17.2706 5.53936 17.17C5.63099 17.0694 5.68177 16.9384 5.68177 16.8025C5.68177 16.6666 5.63099 16.5356 5.53936 16.435C5.44772 16.3344 5.3218 16.2715 5.18615 16.2585H4.18056C4.03653 15.4955 4.05993 14.7105 4.24915 13.9575C4.43836 13.2044 4.7889 12.5011 5.27665 11.8961C5.62861 12.9892 6.53364 14.4834 8.79623 15.6718C10.9231 16.7799 13.7387 17.3465 17.1628 17.3465H19.174C19.2602 17.3388 19.3471 17.349 19.4292 17.3766C19.5112 17.4042 19.5866 17.4486 19.6505 17.5068C19.7144 17.5651 19.7655 17.636 19.8004 17.715C19.8353 17.794 19.8533 17.8794 19.8533 17.9658C19.8533 18.0521 19.8353 18.1376 19.8004 18.2166C19.7655 18.2956 19.7144 18.3665 19.6505 18.4247C19.5866 18.483 19.5112 18.5273 19.4292 18.5549C19.3471 18.5825 19.2602 18.5928 19.174 18.5851H19.2092Z" />
<path d="M23.5825 33.7149L23.1764 34.338L23.1846 34.3432L23.5825 33.7149ZM27.9545 33.9255L28.698 33.909L28.6789 33.0483L27.8301 33.1923L27.9545 33.9255ZM28.0054 36.2132L28.1946 36.9324L28.7619 36.7831L28.7488 36.1967L28.0054 36.2132ZM22.268 36.3221L22.4349 35.5974L22.4303 35.5964L22.268 36.3221ZM19.4356 35.0585L19.9168 34.4914L19.9157 34.4905L19.4356 35.0585ZM18.4116 32.7345L19.1553 32.7382V32.7345H18.4116ZM18.7675 31.1077L18.1002 30.7795L18.0997 30.7805L18.7675 31.1077ZM21.0479 29.1613L21.3117 29.8567L21.3145 29.8556L21.0479 29.1613ZM28.354 28.9725L29.0954 29.0303L29.1443 28.4023L28.5329 28.2507L28.354 28.9725ZM28.1724 31.3038L28.0339 32.0344L28.8494 32.189L28.9138 31.3615L28.1724 31.3038ZM26.1897 30.3495C25.0737 30.3495 24.1355 30.4687 23.4502 30.7701C23.099 30.9245 22.7795 31.1418 22.5469 31.4487C22.3069 31.7652 22.1925 32.134 22.1925 32.5239H23.6798C23.6798 32.4368 23.7009 32.3884 23.7321 32.3472C23.7706 32.2964 23.8578 32.2156 24.0489 32.1316C24.4481 31.9561 25.1368 31.8368 26.1897 31.8368V30.3495ZM22.1925 32.5239C22.1925 33.2892 22.5355 33.9203 23.1765 34.338L23.9885 33.0919C23.7677 32.9479 23.6798 32.785 23.6798 32.5239H22.1925ZM23.1846 34.3432C23.7923 34.728 24.5935 34.8726 25.4925 34.8726V33.3852C24.7164 33.3852 24.2443 33.2537 23.9804 33.0866L23.1846 34.3432ZM25.4925 34.8726C26.375 34.8726 27.2374 34.8015 28.0789 34.6587L27.8301 33.1923C27.0739 33.3207 26.2949 33.3852 25.4925 33.3852V34.8726ZM27.211 33.942L27.2619 36.2297L28.7488 36.1967L28.698 33.909L27.211 33.942ZM27.8161 35.494C26.9659 35.7178 26.0281 35.8327 24.9987 35.8327V37.32C26.1383 37.32 27.205 37.1928 28.1946 36.9324L27.8161 35.494ZM24.9987 35.8327C23.9482 35.8327 23.0981 35.7501 22.4349 35.5974L22.1011 37.0469C22.9098 37.2331 23.8801 37.32 24.9987 37.32V35.8327ZM22.4303 35.5964C21.7205 35.4376 21.2078 35.269 20.8659 35.102L20.2132 36.4384C20.704 36.6781 21.3436 36.8774 22.1057 37.0479L22.4303 35.5964ZM20.8659 35.102C20.4993 34.9229 20.1845 34.7185 19.9168 34.4914L18.9545 35.6255C19.3259 35.9407 19.747 36.2108 20.2132 36.4384L20.8659 35.102ZM19.9157 34.4905C19.4103 34.0634 19.1515 33.5053 19.1553 32.7382L17.668 32.7308C17.6621 33.9003 18.0859 34.8915 18.9556 35.6265L19.9157 34.4905ZM19.1553 32.7345C19.1553 32.2345 19.2534 31.8061 19.4353 31.4349L18.0997 30.7805C17.8071 31.3776 17.668 32.0337 17.668 32.7345H19.1553ZM19.4348 31.4359C19.7731 30.748 20.3705 30.2138 21.3117 29.8566L20.7841 28.466C19.5562 28.932 18.6333 29.6953 18.1002 30.7795L19.4348 31.4359ZM21.3145 29.8556C22.3039 29.4757 23.4081 29.2805 24.6356 29.2805V27.7931C23.2485 27.7931 21.9609 28.0142 20.7814 28.4671L21.3145 29.8556ZM24.6356 29.2805C25.8874 29.2805 27.0665 29.4195 28.175 29.6943L28.5329 28.2507C27.2981 27.9445 25.9982 27.7931 24.6356 27.7931V29.2805ZM27.6125 28.9148L27.431 31.246L28.9138 31.3615L29.0954 29.0303L27.6125 28.9148ZM28.3109 30.5731C27.5371 30.4264 26.8285 30.3495 26.1897 30.3495V31.8368C26.7129 31.8368 27.3261 31.9003 28.0339 32.0344L28.3109 30.5731ZM35.567 31.7613L35.5629 32.505L36.3187 32.5092L36.3107 31.7534L35.567 31.7613ZM35.2475 30.7954L34.7414 31.3404L34.7479 31.3463L35.2475 30.7954ZM33.3956 30.868L33.9106 31.4045L33.9161 31.3992L33.3956 30.868ZM32.9453 31.7468L32.2115 31.6262L32.0702 32.4856L32.9412 32.4905L32.9453 31.7468ZM38.4139 35.7121L38.8632 36.3047L39.1305 36.1021L39.1555 35.7676L38.4139 35.7121ZM36.8089 36.3076L36.649 35.5813L36.6447 35.5823L36.8089 36.3076ZM31.2313 36.1043L30.9777 36.8034L30.9838 36.8055L31.2313 36.1043ZM29.9604 35.4289L29.4988 36.012L29.5078 36.0189L29.9604 35.4289ZM29.1107 34.3613L28.4441 34.6909L28.4455 34.6939L29.1107 34.3613ZM29.9822 29.8513L30.4767 30.4067L30.4771 30.4064L29.9822 29.8513ZM36.7799 29.0451L37.0773 28.3635L37.0703 28.3605L36.7799 29.0451ZM38.4865 30.6138L37.8177 30.939L37.8197 30.9431L38.4865 30.6138ZM38.777 31.9138L39.5188 31.9678L39.5207 31.9408V31.9138H38.777ZM38.6899 33.1121L38.6862 33.8558L39.3812 33.8592L39.4316 33.1661L38.6899 33.1121ZM32.8 33.0831L32.8037 32.3394L31.8335 32.3346L32.0809 33.2727L32.8 33.0831ZM33.6425 34.1216L33.2765 34.769L33.2795 34.7707L33.6425 34.1216ZM38.1597 33.8674V33.1238H38.0111L37.8739 33.1809L38.1597 33.8674ZM38.5519 33.8674L39.2935 33.9229L39.3533 33.1238H38.5519V33.8674ZM36.3107 31.7534C36.3049 31.2155 36.1813 30.6383 35.7471 30.2445L34.7479 31.3463C34.7391 31.3383 34.7562 31.3478 34.7775 31.4121C34.8 31.4802 34.8215 31.5939 34.8234 31.7692L36.3107 31.7534ZM35.7535 30.2504C35.3632 29.888 34.8512 29.7685 34.3469 29.7685V31.2558C34.6367 31.2558 34.725 31.3251 34.7415 31.3404L35.7535 30.2504ZM34.3469 29.7685C33.7931 29.7685 33.278 29.942 32.875 30.3369L33.9161 31.3992C33.9973 31.3196 34.1164 31.2558 34.3469 31.2558V29.7685ZM32.8805 30.3315C32.5144 30.683 32.2938 31.1255 32.2115 31.6262L33.6791 31.8674C33.713 31.6612 33.7925 31.5179 33.9106 31.4045L32.8805 30.3315ZM32.9412 32.4905L35.5629 32.505L35.5712 31.0176L32.9494 31.0031L32.9412 32.4905ZM37.9647 35.1195C37.8016 35.243 37.404 35.4151 36.649 35.5813L36.9688 37.0339C37.7535 36.8612 38.4258 36.6363 38.8632 36.3047L37.9647 35.1195ZM36.6447 35.5823C35.9241 35.7454 35.2313 35.8254 34.5648 35.8254V37.3127C35.3509 37.3127 36.1541 37.2184 36.9731 37.0329L36.6447 35.5823ZM34.5648 35.8254C33.864 35.8254 33.2868 35.7923 32.8266 35.7304L32.6282 37.2044C33.1751 37.278 33.8228 37.3127 34.5648 37.3127V35.8254ZM32.8266 35.7304C32.3752 35.6696 31.9261 35.5608 31.4789 35.403L30.9838 36.8055C31.5243 36.9963 32.0726 37.1296 32.6282 37.2044L32.8266 35.7304ZM31.4849 35.4052C31.0502 35.2474 30.6964 35.0562 30.4131 34.8388L29.5078 36.0189C29.9313 36.3438 30.4248 36.6028 30.9777 36.8034L31.4849 35.4052ZM30.422 34.8458C30.1667 34.6437 29.9498 34.3765 29.7759 34.0287L28.4455 34.6939C28.7074 35.2176 29.0569 35.6621 29.4988 36.0119L30.422 34.8458ZM29.7773 34.0316C29.6209 33.7153 29.5276 33.308 29.5276 32.7853H28.0402C28.0402 33.4827 28.1648 34.1261 28.4441 34.6909L29.7773 34.0316ZM29.5276 32.7853C29.5276 32.2621 29.6219 31.8001 29.8002 31.3892L28.4358 30.7971C28.1686 31.4126 28.0402 32.0787 28.0402 32.7853H29.5276ZM29.8002 31.3892C29.9876 30.9572 30.2173 30.6377 30.4767 30.4067L29.4877 29.2959C29.0402 29.6943 28.6937 30.2027 28.4358 30.7971L29.8002 31.3892ZM30.4771 30.4064C31.2764 29.6937 32.4956 29.2805 34.2525 29.2805V27.7931C32.2814 27.7931 30.6537 28.2562 29.4873 29.2962L30.4771 30.4064ZM34.2525 29.2805C35.0409 29.2805 35.7844 29.4307 36.4894 29.7298L37.0703 28.3605C36.1776 27.9818 35.2362 27.7931 34.2525 27.7931V29.2805ZM36.4824 29.7268C37.1405 30.0139 37.5659 30.421 37.8177 30.939L39.1554 30.2887C38.7294 29.4123 38.0169 28.7736 37.0773 28.3635L36.4824 29.7268ZM37.8197 30.9431C37.9586 31.2244 38.0334 31.5437 38.0334 31.9138H39.5207C39.5207 31.335 39.4018 30.7876 39.1534 30.2846L37.8197 30.9431ZM38.0353 31.8599L37.9482 33.0582L39.4316 33.1661L39.5188 31.9678L38.0353 31.8599ZM38.6936 32.3685L32.8037 32.3394L32.7964 33.8267L38.6862 33.8558L38.6936 32.3685ZM32.0809 33.2727C32.2548 33.932 32.68 34.4319 33.2766 34.769L34.0084 33.4742C33.7141 33.3078 33.5777 33.1154 33.5191 32.8934L32.0809 33.2727ZM33.2795 34.7707C33.8827 35.108 34.637 35.2429 35.4799 35.2429V33.7556C34.7735 33.7556 34.3028 33.6388 34.0054 33.4725L33.2795 34.7707ZM35.4799 35.2429C36.3844 35.2429 37.3778 34.9984 38.4455 34.554L37.8739 33.1809C36.9178 33.5789 36.1247 33.7556 35.4799 33.7556V35.2429ZM38.1597 34.6111H38.5519V33.1238H38.1597V34.6111ZM37.8103 33.812L37.6723 35.6566L39.1555 35.7676L39.2935 33.9229L37.8103 33.812Z"/>
</symbol>
<symbol id="burger" viewBox="0 0 32 32">
<path d="M26.7333 14H5.26667C4.56711 14 4 14.4253 4 14.95V15.05C4 15.5747 4.56711 16 5.26667 16H26.7333C27.4329 16 28 15.5747 28 15.05V14.95C28 14.4253 27.4329 14 26.7333 14Z"/>
<path d="M26.7333 20H5.26667C4.56711 20 4 20.4253 4 20.95V21.05C4 21.5747 4.56711 22 5.26667 22H26.7333C27.4329 22 28 21.5747 28 21.05V20.95C28 20.4253 27.4329 20 26.7333 20Z"/>
<path d="M26.7333 8H5.26667C4.56711 8 4 8.42533 4 8.95V9.05C4 9.57467 4.56711 10 5.26667 10H26.7333C27.4329 10 28 9.57467 28 9.05V8.95C28 8.42533 27.4329 8 26.7333 8Z"/>
</symbol>
<symbol id="arrow" viewBox="0 0 41 16">
<path d="M40.7071 8.70711C41.0976 8.31658 41.0976 7.68342 40.7071 7.29289L34.3431 0.928932C33.9526 0.538408 33.3195 0.538408 32.9289 0.928932C32.5384 1.31946 32.5384 1.95262 32.9289 2.34315L38.5858 8L32.9289 13.6569C32.5384 14.0474 32.5384 14.6805 32.9289 15.0711C33.3195 15.4616 33.9526 15.4616 34.3431 15.0711L40.7071 8.70711ZM0 9H40V7H0V9Z"/>
</symbol>
<symbol id="close" viewBox="0 0 32 32">
<path d="M23.884 6.70597L16 14.59L8.11602 6.70597C7.9264 6.53245 7.67714 6.43878 7.42017 6.44448C7.1632 6.45017 6.91833 6.55479 6.73658 6.73654C6.55484 6.91829 6.45022 7.16315 6.44452 7.42012C6.43883 7.67709 6.5325 7.92635 6.70602 8.11597L14.586 16L6.70402 23.882C6.60773 23.9737 6.53075 24.0838 6.47761 24.2058C6.42448 24.3277 6.39626 24.4591 6.39461 24.5921C6.39296 24.7251 6.41792 24.8571 6.46802 24.9803C6.51812 25.1035 6.59235 25.2155 6.68634 25.3096C6.78033 25.4038 6.89219 25.4781 7.01535 25.5284C7.1385 25.5787 7.27046 25.6038 7.40348 25.6024C7.53649 25.6009 7.66787 25.5729 7.78989 25.5199C7.91191 25.467 8.02211 25.3901 8.11402 25.294L16 17.412L23.884 25.296C24.0736 25.4695 24.3229 25.5632 24.5799 25.5575C24.8368 25.5518 25.0817 25.4472 25.2635 25.2654C25.4452 25.0837 25.5498 24.8388 25.5555 24.5818C25.5612 24.3249 25.4675 24.0756 25.294 23.886L17.41 16.002L25.294 8.11597C25.3903 8.0242 25.4673 7.91411 25.5204 7.79216C25.5736 7.67022 25.6018 7.53888 25.6034 7.40587C25.6051 7.27286 25.5801 7.14086 25.53 7.01763C25.4799 6.89441 25.4057 6.78244 25.3117 6.68832C25.2177 6.59419 25.1058 6.5198 24.9827 6.46953C24.8595 6.41926 24.7276 6.39411 24.5946 6.39557C24.4616 6.39703 24.3302 6.42506 24.2082 6.47802C24.0861 6.53099 23.9759 6.60781 23.884 6.70397V6.70597Z"/>
</symbol>
<symbol id="close-modal" viewBox="0 0 20 20">
<path d="M10.7831 9.99997L15.3887 5.39441C15.4797 5.28813 15.5272 5.15142 15.5218 5.0116C15.5164 4.87178 15.4585 4.73915 15.3595 4.64021C15.2606 4.54127 15.128 4.48331 14.9881 4.47791C14.8483 4.4725 14.7116 4.52006 14.6053 4.61108L9.99977 9.21663L5.39421 4.60552C5.2896 4.50091 5.14771 4.44214 4.99977 4.44214C4.85182 4.44214 4.70994 4.50091 4.60532 4.60552C4.50071 4.71014 4.44194 4.85202 4.44194 4.99997C4.44194 5.14791 4.50071 5.2898 4.60532 5.39441L9.21643 9.99997L4.60532 14.6055C4.54717 14.6553 4.49993 14.7166 4.46659 14.7855C4.43324 14.8545 4.4145 14.9295 4.41155 15.006C4.40859 15.0826 4.42148 15.1589 4.44941 15.2301C4.47734 15.3014 4.51971 15.3662 4.57385 15.4203C4.62799 15.4745 4.69274 15.5168 4.76403 15.5448C4.83532 15.5727 4.91162 15.5856 4.98813 15.5826C5.06464 15.5797 5.13972 15.5609 5.20864 15.5276C5.27757 15.4942 5.33885 15.447 5.38866 15.3889L9.99977 10.7833L14.6053 15.3889C14.7116 15.4799 14.8483 15.5274 14.9881 15.522C15.128 15.5166 15.2606 15.4587 15.3595 15.3597C15.4585 15.2608 15.5164 15.1282 15.5218 14.9883C15.5272 14.8485 15.4797 14.7118 15.3887 14.6055L10.7831 9.99997Z"/>
</symbol>
<symbol id="single-right" viewBox="0 0 12 12">
<path d="M3.96959 1.22704C3.82899 1.36768 3.75 1.55841 3.75 1.75729C3.75 1.95616 3.82899 2.14689 3.96959 2.28754L7.68209 6.00004L3.96959 9.71254C3.83297 9.85399 3.75738 10.0434 3.75908 10.2401C3.76079 10.4367 3.83967 10.6248 3.97873 10.7639C4.11778 10.903 4.30589 10.9818 4.50254 10.9835C4.69919 10.9853 4.88864 10.9097 5.03009 10.773L9.27284 6.53029C9.41344 6.38964 9.49243 6.19891 9.49243 6.00004C9.49243 5.80116 9.41344 5.61043 9.27284 5.46979L5.03009 1.22704C4.88944 1.08643 4.69871 1.00745 4.49984 1.00745C4.30097 1.00745 4.11024 1.08643 3.96959 1.22704Z"/>
</symbol>
<symbol id="icon-about-button-arrow" viewBox="0 0 32 32">
 <path d="M10.587 3.272c-0.361 0.362-0.585 0.861-0.585 1.413s0.223 1.051 0.585 1.413l9.899 9.901-9.899 9.899c-0.348 0.359-0.562 0.85-0.562 1.39 0 1.105 0.895 2 2 2 0.54 0 1.030-0.214 1.389-0.561l11.314-11.314c0.361-0.362 0.585-0.861 0.585-1.413s-0.224-1.052-0.585-1.413l-11.315-11.315c-0.362-0.361-0.861-0.585-1.413-0.585s-1.052 0.224-1.413 0.585l0-0z"></path>
</symbol>

<symbol id="cow" viewBox="0 0 36 36">
<path d="M6.93937 0.216314C6.64615 0.469999 5.80724 2.22042 5.50588 3.17597C5.14751 4.35983 5.02534 5.24772 5.07421 6.47387C5.13937 8.22429 5.57919 9.5519 6.54842 10.9387C6.80091 11.3023 7.00453 11.6152 7.00453 11.6406C7.00453 11.6575 6.84977 11.6744 6.6543 11.6744C5.81538 11.6744 4.24344 11.9534 3.03801 12.3171C1.12398 12.8921 0 13.8984 0 15.023C0 15.4205 0.358371 16.097 0.741177 16.4437C1.48235 17.1117 3.10317 17.7459 4.84615 18.0503C5.44887 18.1603 7.24072 18.3463 7.63982 18.3548C7.71312 18.3548 7.73756 18.7437 7.73756 20.0206C7.73756 21.1199 7.77828 21.974 7.85973 22.4983C8.15294 24.3755 9.06516 26.3627 10.2706 27.7664L10.686 28.2484L10.4091 28.6966C10.0018 29.3308 9.84706 29.8128 9.79819 30.5316C9.67602 32.2567 10.7511 33.7872 12.8281 34.8612C16.7864 36.916 22.9357 36.1127 25.2407 33.2376C26.3647 31.8339 26.495 30.2272 25.6072 28.7727L25.3303 28.3245L25.8272 27.7242C26.7557 26.608 27.3584 25.4917 27.8145 24.0796C28.1973 22.8788 28.3439 21.7203 28.3439 19.8853C28.3439 19.0482 28.3683 18.3548 28.4091 18.3548C28.7837 18.3463 30.5837 18.1518 31.1538 18.0503C32.905 17.7459 34.4932 17.1202 35.2588 16.4437C35.6416 16.097 36 15.4205 36 15.023C36 13.7715 34.7294 12.7568 32.3674 12.1479C31.5937 11.945 30.1357 11.6998 29.4272 11.6575L29.0932 11.6321L29.4597 11.1247C29.9158 10.5074 30.486 9.30667 30.7059 8.52025C31.3249 6.24555 30.9421 3.59877 29.6145 1.07039C29.0606 0.0218229 28.6778 -0.223405 28.2299 0.190946C28.0588 0.351613 27.9855 0.571472 27.8226 1.36635C27.3176 3.89474 26.381 5.89885 25.0127 7.37867L24.41 8.03825H17.9674H11.5249L10.9873 7.45478C9.65158 5.98341 8.68235 3.90319 8.17738 1.36635C8.01448 0.571472 7.94118 0.351613 7.77014 0.190946C7.50136 -0.0542825 7.24072 -0.0458263 6.93937 0.216314ZM7.9819 5.23081C8.41358 6.1779 8.95113 7.0658 9.58643 7.88604L10.0914 8.53717L9.56199 8.9346C9.06516 9.31513 8.60091 9.85632 8.24253 10.4736L8.08778 10.7527L7.69683 10.2199C6.36109 8.3765 6.02715 6.11871 6.73575 3.77635C7.07783 2.64323 7.06968 2.65169 7.37919 3.6326C7.52579 4.10614 7.80272 4.82492 7.9819 5.23081ZM29.1828 3.44656C29.5167 4.45285 29.6471 5.25618 29.6471 6.29629C29.6471 7.83531 29.2398 9.13755 28.3846 10.3045L28.0018 10.8288L27.7167 10.3468C27.3828 9.75485 26.8127 9.13755 26.2914 8.78239C26.0715 8.63864 25.9005 8.49488 25.9005 8.47797C25.9005 8.4526 26.0552 8.25811 26.2507 8.04671C27.1548 7.04043 28.124 5.23081 28.6045 3.67488C28.7511 3.19288 28.8977 2.79544 28.9222 2.79544C28.9466 2.79544 29.0688 3.09141 29.1828 3.44656ZM25.0208 9.62801C25.9249 10.0085 26.7882 11.0994 26.9267 12.0211C27 12.5285 27.171 12.8498 27.391 12.9005C27.4887 12.9174 28.1647 12.9766 28.8896 13.0274C31.4634 13.1965 33.4914 13.7462 34.3548 14.4987C34.7538 14.8539 34.7131 15.1499 34.2326 15.5135C33.2715 16.2407 31.1946 16.7904 29.0769 16.8834C27.676 16.9426 27.3828 16.9849 27.1955 17.1793C27.057 17.3231 27.0407 17.4753 27.0407 19.0059C27.0407 21.0776 26.9348 22.2699 26.6742 23.2339C26.3077 24.5447 25.5828 25.9399 24.7357 26.9293L24.3855 27.3352L23.6606 26.9039C22.781 26.3796 21.9584 26.0414 20.9729 25.8131C17.886 25.0774 14.4733 25.5256 12.1765 26.9716L11.6471 27.3098L11.3131 26.9124C10.857 26.3796 10.1403 25.2381 9.8552 24.5954C9.22805 23.1409 9.04072 21.9571 9.04072 19.3526C9.04072 16.8242 9.17104 17.0102 7.29774 16.9088C4.90317 16.7819 3.07873 16.3506 1.93032 15.6234C1.08326 15.0822 1.22172 14.6002 2.40272 14.0337C3.53484 13.484 5.0905 13.1542 7.24887 13.0189C8.9267 12.909 8.96742 12.8836 9.12217 12.0718C9.35023 10.8457 10.2543 9.83096 11.3946 9.50962C11.6796 9.42506 13.276 9.40815 18.1629 9.4166L24.5566 9.43352L25.0208 9.62801ZM20.4434 27.1322C22.4389 27.6227 23.9294 28.536 24.5729 29.6691C24.7276 29.9312 24.7928 30.2018 24.8253 30.6162C24.8579 31.132 24.8335 31.2588 24.638 31.6816C23.7339 33.6012 20.4109 34.8696 17.0308 34.5821C12.9665 34.2439 10.295 31.9776 11.3457 29.7536C11.9158 28.5529 13.8462 27.4028 15.8824 27.0646C16.2163 27.0138 16.5502 26.9547 16.6154 26.9377C16.6805 26.9208 17.4136 26.9208 18.2443 26.9377C19.3765 26.9631 19.9222 27.0138 20.4434 27.1322Z" fill="#131313"/>
<path d="M12.3635 13.8613C11.8585 14.0304 11.5164 14.2502 11.0603 14.7067C10.6612 15.0871 10.6286 15.5352 10.9626 15.8057C11.2721 16.0593 11.5653 16.0255 11.9399 15.6958C12.4123 15.2816 12.7789 15.1125 13.235 15.1125C13.6911 15.104 14.0413 15.2647 14.53 15.6958C14.9046 16.0255 15.1979 16.0593 15.5074 15.8057C15.6703 15.6705 15.7191 15.5606 15.7191 15.3069C15.7191 15.0449 15.6621 14.9265 15.377 14.6391C14.5707 13.8275 13.3734 13.5147 12.3635 13.8613Z" fill="#131313"/>
<path d="M21.8606 13.8525C21.3393 14.047 20.6714 14.4866 20.4026 14.8163C20.142 15.1376 20.1339 15.5011 20.4026 15.7716C20.6714 16.0591 20.9972 16.0421 21.3882 15.7209C22.3492 14.9262 23.066 14.9008 23.9538 15.6364C24.1818 15.8308 24.4425 15.983 24.5239 15.983C24.923 15.983 25.2488 15.6279 25.2488 15.2052C25.2488 14.9347 24.5728 14.3091 23.9619 14.0132C23.2859 13.6835 22.4796 13.6243 21.8606 13.8525Z" fill="#131313"/>
<path d="M13.5448 29.5015C13.3086 29.7298 13.2272 30.0595 13.3493 30.3216C13.4389 30.5329 13.5774 30.6175 14.1394 30.7697C14.3919 30.8373 14.4978 30.9218 14.5874 31.1332C14.7014 31.4122 14.7095 31.4122 15.3367 31.4375L15.9638 31.4629V31.2262C15.9557 30.888 15.7683 30.3977 15.524 30.0595C15.2389 29.6706 14.7421 29.417 14.1801 29.3663C13.7973 29.3325 13.6996 29.3494 13.5448 29.5015Z" fill="#131313"/>
<path d="M21.3228 29.4419C20.9155 29.5518 20.3291 30.1013 20.1662 30.5325C20.0929 30.7269 20.0196 31.0735 20.0115 31.3018C19.9952 31.6653 20.0278 31.7499 20.2232 31.9274C20.7038 32.3501 21.3391 32.0204 21.3391 31.3441C21.3391 31.0144 21.5834 30.7861 22.0151 30.7016C22.4712 30.617 22.6341 30.431 22.6422 29.9999C22.6422 29.4335 22.1373 29.2136 21.3228 29.4419Z" fill="#131313"/>
</symbol>
<symbol id="kettlebell" viewBox="0 0 36 36">
<path d="M15.9495 0.615292C11.4785 1.27834 7.79691 3.76071 6.4423 7.01123C6.01016 8.03814 5.89381 8.66884 5.89381 9.90598C5.90212 10.8197 5.93536 11.1593 6.07664 11.6525C6.36751 12.6228 6.57527 13.1161 7.00742 13.8115L7.40632 14.4583L6.95755 15.0082C3.40897 19.4231 3.01837 25.633 5.97691 30.525C7.08221 32.3605 8.88559 34.1637 10.6474 35.2148L11.171 35.5221L18.3346 35.4655L25.5066 35.4008L25.8473 35.2148C27.0357 34.5437 28.7144 33.0478 29.6535 31.8349C31.0663 29.9913 31.9888 27.8405 32.3794 25.5118C32.5123 24.6789 32.5123 22.2127 32.3711 21.4284C31.9472 19.0107 31.0414 16.9407 29.612 15.1052C29.3377 14.7575 29.1217 14.4664 29.1217 14.4422C29.1217 14.426 29.2712 14.1753 29.4458 13.8923C29.853 13.2455 30.2186 12.4126 30.4181 11.6849C30.6425 10.8763 30.6425 8.85482 30.4181 8.04623C29.6203 5.17574 27.2269 2.78231 23.8445 1.46431C22.8971 1.09236 21.2765 0.696152 20.2294 0.566776C19.2571 0.453575 16.8554 0.477833 15.9495 0.615292ZM21.0106 1.93329C25.4484 2.79848 28.6978 5.51534 29.2962 8.8629C29.4291 9.61489 29.346 10.8925 29.1217 11.604C28.8973 12.2994 28.4818 13.1161 27.9914 13.8115C27.792 14.0945 27.6258 14.4179 27.6258 14.523C27.6258 14.6281 27.8003 14.9031 28.0496 15.178C30.1272 17.4825 31.2242 20.3691 31.2242 23.4903C31.2159 27.04 29.853 30.1531 27.2269 32.595C26.7781 33.0155 26.1382 33.5411 25.7975 33.7675L25.1742 34.1879L18.3014 34.2122L11.4369 34.2445L10.905 33.9049C8.977 32.6516 7.24011 30.5816 6.27609 28.3823C5.06276 25.6007 4.9381 22.3744 5.92705 19.4797C6.45061 17.9757 7.14869 16.7467 8.21244 15.4529C8.64458 14.9354 8.84404 14.6281 8.84404 14.4826C8.84404 14.3613 8.62796 13.9651 8.34541 13.5527C7.34815 12.1053 6.94093 10.4963 7.18194 8.97611C7.43125 7.43979 8.12933 6.17839 9.41746 4.92507C11.0962 3.29981 13.4397 2.22438 16.1905 1.82009C17.3291 1.65029 19.8471 1.71497 21.0106 1.93329Z" fill="black"/>
<path d="M16.3229 3.35635C12.9155 3.91428 10.2479 5.80638 9.37527 8.28875C9.17582 8.84667 9.14258 9.06499 9.14258 9.86549C9.14258 10.666 9.17582 10.8843 9.37527 11.4422C9.49993 11.798 9.73262 12.2913 9.89052 12.5419C10.3227 13.2373 10.5138 13.2616 11.3698 12.7441C12.6496 11.9597 14.1206 11.3856 15.6497 11.0703C16.6802 10.8601 18.6581 10.7792 19.78 10.9086C21.5335 11.1107 23.4366 11.7414 24.9575 12.639C25.3896 12.8896 25.8301 13.0999 25.9381 13.0999C26.5697 13.0999 27.3758 11.2805 27.3758 9.86549C27.3758 6.72008 24.3674 4.02748 20.1041 3.35635C19.1983 3.2108 17.1955 3.2108 16.3229 3.35635ZM20.4365 4.65009C21.866 4.95736 23.179 5.53954 24.168 6.3077C25.4976 7.33461 26.2123 8.76581 26.096 10.1485C26.0544 10.6983 25.8467 11.4422 25.722 11.5231C25.6888 11.5393 25.2234 11.3452 24.6915 11.0865C23.5862 10.5528 22.3313 10.1242 21.0598 9.84932C20.287 9.68761 19.9628 9.66335 18.2343 9.67143C16.5306 9.67143 16.1733 9.69569 15.4336 9.84932C14.1538 10.1242 13.1565 10.4639 11.9266 11.046C10.6883 11.6363 10.7548 11.6444 10.5304 10.9167C10.2396 9.97061 10.4224 8.7173 10.9875 7.77125C11.2867 7.26992 12.1094 6.43708 12.7078 6.0247C13.8463 5.24036 14.8436 4.88458 16.9877 4.49646C17.4281 4.4156 19.8714 4.5288 20.4365 4.65009Z" fill="black"/>
<path d="M19.0827 15.0808C18.85 15.3719 18.85 15.6468 19.091 15.8813C19.2489 16.035 19.4068 16.0754 19.9802 16.1158C21.0938 16.1967 22.1576 16.5201 23.1133 17.07C23.7947 17.4743 24.8335 18.4526 25.2989 19.1561C25.9887 20.1669 26.4624 21.6142 26.4624 22.6816C26.4624 23.0535 26.4956 23.1667 26.6702 23.3284C26.9361 23.5953 27.2851 23.5953 27.5428 23.3284C27.7256 23.1425 27.7339 23.0939 27.684 22.3015C27.4513 18.388 24.1022 15.1213 20.0966 14.9029L19.2655 14.8544L19.0827 15.0808Z" fill="black"/>
</symbol>
<symbol id="ice-cream" viewBox="0 0 36 36">
<path d="M18.1219 0.120502C18.2123 0.361507 18.393 1.52887 18.393 1.89038C18.393 2.78661 18.0616 3.62259 17.4516 4.27782C16.947 4.82008 16.4424 5.12134 15.2298 5.61088C13.8817 6.16067 13.3244 6.49205 12.6918 7.11716C12.0516 7.75732 11.675 8.45774 11.5395 9.27866C11.3888 10.1749 11.5395 10.8075 11.9989 11.169L12.2324 11.3498L11.8633 11.5833C11.1177 12.0728 9.76206 13.2251 9.52859 13.5791C9.07671 14.2569 9.1219 14.8895 9.63403 15.1456L9.87504 15.2661L9.60391 15.5222C9.19721 15.9063 9.11437 16.1699 9.17462 16.8628C9.21227 17.3222 9.19721 17.5707 9.09177 17.9473C8.96374 18.4368 8.96374 18.4444 9.12943 18.7908C9.29512 19.1297 9.76206 19.559 10.1838 19.7397C10.3872 19.8301 10.3947 19.8603 10.4399 20.5531C10.4625 20.9523 10.5001 22.2251 10.5303 23.3849C10.5529 24.5448 10.6056 25.6067 10.6508 25.7347C10.6884 25.8703 10.8315 26.051 10.9596 26.1414C11.3964 26.4427 11.6976 26.7665 11.8934 27.1431C12.1119 27.5724 12.3529 28.6268 13.0834 32.272L13.5955 34.8326L13.9119 35.1339C14.5144 35.7289 15.6667 36 17.5646 36C19.47 36 20.6073 35.7364 21.2098 35.1414L21.5336 34.8326L22.0006 32.4603C23.0324 27.2711 23.1227 26.9849 23.9286 26.3448C24.1771 26.1414 24.4181 25.8929 24.4633 25.7799C24.516 25.6519 24.5688 24.6653 24.6064 23.1741C24.6365 21.8485 24.6817 20.5381 24.7119 20.2594L24.757 19.7548L25.2466 19.3858C25.8642 18.9113 26.1052 18.482 26.1052 17.8192C26.0976 17.036 25.5855 16.1774 24.6516 15.4092L24.2073 15.0477L24.4257 14.7389C25.337 13.4812 24.7646 11.7414 23.07 10.5816L22.5579 10.2276L22.7462 10.0318C23.5821 9.13556 23.7177 6.46193 23.0173 4.60167C22.5955 3.49456 21.6315 2.28954 20.4491 1.40084C19.8692 0.964016 18.2725 0 18.1294 0C18.0993 0 18.0993 0.0527191 18.1219 0.120502ZM20.2909 2.74895C20.6901 3.14059 21.1721 3.67531 21.3604 3.94644C22.4826 5.51297 22.7688 7.47866 22.0909 8.92469C21.8198 9.51213 21.0064 10.3858 20.2533 10.9054C19.101 11.7038 16.5102 13.0444 14.7027 13.7824C11.7955 14.9649 10.1085 15.1908 9.91269 14.4151C9.83738 14.1213 10.0558 13.8879 10.9821 13.2703C11.8181 12.6979 15.5688 9.9113 15.6365 9.79833C15.6591 9.7682 15.275 9.94142 14.793 10.1824C13.1587 11.0109 12.383 10.8527 12.4206 9.70042C12.4432 8.86444 13.0457 7.91548 13.8817 7.37322C14.0926 7.23766 14.7478 6.9364 15.3503 6.6954C17.3311 5.89707 17.9336 5.49038 18.6039 4.4887C19.0031 3.89372 19.4399 2.79414 19.47 2.3272C19.4775 2.16151 19.5077 2.03347 19.5303 2.03347C19.5529 2.03347 19.8918 2.35732 20.2909 2.74895ZM22.347 11.3046C22.8968 11.6134 23.4692 12.1406 23.7177 12.5548C24.1545 13.3004 23.9286 14.046 22.9872 14.995C21.9629 16.0343 20.2156 17.0285 18.2951 17.6611C16.5252 18.241 14.8307 18.5121 12.4056 18.595L10.8993 18.6477L11.8784 18.708C13.1437 18.7908 15.5914 18.7155 16.5403 18.5649C19.0633 18.1657 21.2098 17.3674 22.7462 16.2678C23.0926 16.0192 23.4541 15.8159 23.552 15.8159C23.8006 15.8159 24.8851 16.8552 25.1035 17.292C25.224 17.5406 25.2541 17.7213 25.2315 17.9623C25.1185 18.964 23.8985 19.4987 20.9537 19.8527C17.3537 20.282 12.6466 19.8603 10.6357 18.9339C9.68675 18.4971 9.52859 18.2485 9.7696 17.5858C9.84491 17.3749 9.85997 17.1264 9.82985 16.7724C9.79219 16.3054 9.79972 16.2452 9.96541 16.072C10.342 15.6653 10.9746 15.4318 13.2943 14.8444C14.1077 14.6335 15.2148 14.3021 15.742 14.1063C17.0223 13.6393 19.4248 12.4268 20.5395 11.6812C21.5863 10.9883 21.737 10.9582 22.347 11.3046ZM12.3453 20.523C13.9269 20.9824 15.3278 21.118 17.9336 21.0653C19.8918 21.0276 21.0968 20.9071 22.8365 20.5983C23.1905 20.5381 23.4993 20.4854 23.537 20.4854C23.6198 20.4854 23.5972 23.3774 23.5068 24.1381C23.4089 24.9439 23.1905 25.569 22.957 25.7197C22.716 25.8778 21.511 26.0435 19.8993 26.1339C16.593 26.3146 13.1964 26.1339 12.142 25.7121C11.5696 25.4787 11.5093 25.1774 11.5018 22.3833C11.5018 20.523 11.5169 20.2669 11.6148 20.3046C11.675 20.3272 12.0064 20.4251 12.3453 20.523ZM14.1303 26.9247C14.6725 26.9925 15.26 27.0603 15.4407 27.0828L15.7646 27.1205L15.4784 27.4368C15.1093 27.836 14.5445 28.6343 14.3411 29.041C14.1077 29.5079 14.0324 29.5381 13.6859 29.3498L13.3922 29.1841L13.2265 28.1598C13.1361 27.6025 13.0382 27.0678 13.0156 26.9774C12.9478 26.7816 12.8801 26.7816 14.1303 26.9247ZM22.1587 26.8418C22.1587 26.8569 22.1211 27.0527 22.0834 27.2711C22.0382 27.4971 21.8499 28.7247 21.6616 30.005C21.2775 32.6787 21.0215 33.9364 20.788 34.3582C20.4642 34.923 19.6884 35.2544 18.4307 35.3598C17.9411 35.3975 16.465 35.2996 16.3821 35.2243C16.3219 35.1565 17.6173 33.5523 17.8206 33.4469C18.0089 33.3414 18.0616 33.3565 18.7018 33.6879C19.4474 34.0795 19.824 34.1397 19.824 33.8912C19.824 33.6427 19.6282 33.4017 19.1462 33.0703C18.7018 32.754 18.5437 32.5732 18.5437 32.3623C18.5437 32.3021 18.7621 31.9632 19.0257 31.6092C19.2893 31.2552 19.6734 30.6904 19.8692 30.3515L20.2382 29.7414L20.5771 29.7866C21.2625 29.8845 21.4432 29.877 21.4206 29.7264C21.4056 29.651 21.2775 29.4326 21.1344 29.2519C20.9914 29.0636 20.8784 28.8753 20.8784 28.8377C20.8784 28.6946 21.5788 27.3766 21.8047 27.0979C22.0006 26.8569 22.1587 26.7364 22.1587 26.8418ZM17.4516 27.4444C17.8282 27.6929 19.2441 28.9205 19.3344 29.0711C19.3721 29.1389 17.9185 31.4134 17.6324 31.7372C17.6022 31.7749 17.4441 31.6996 17.2859 31.5791C17.1278 31.451 16.5403 31.0444 15.9755 30.6753L14.9587 30.005L15.5688 28.9732C16.6533 27.1582 16.6307 27.1883 16.8642 27.1883C16.9847 27.1883 17.2483 27.3013 17.4516 27.4444ZM20.306 27.7155C20.0424 28.0393 19.824 28.2427 19.7336 28.2427C19.5378 28.2427 19.2215 28.0695 18.6868 27.6778L18.2424 27.354L19.1311 27.3013C19.6131 27.2787 20.0801 27.2485 20.1629 27.2335C20.7654 27.1356 20.7654 27.1431 20.306 27.7155ZM14.6123 31.3381C15.3052 31.6092 16.4801 32.2494 16.819 32.5356C17.06 32.7314 17.06 32.7464 16.9621 32.9874C16.9018 33.123 16.6985 33.4845 16.4951 33.7933C16.2993 34.0946 16.0734 34.4711 15.9905 34.6293C15.7495 35.0962 15.6742 35.1339 15.1771 34.9983C14.6424 34.8402 14.3562 34.569 14.2056 34.0795C14.0022 33.3941 13.6784 31.4586 13.716 31.1573C13.7311 31.0444 14.0474 31.1121 14.6123 31.3381Z" fill="black"/>
</symbol>

<symbol id="git-hub" viewBox="0 0 20 20">
<path d="M10 0C4.50745 0 0 4.50745 0 10C0 14.687 3.28888 18.9447 7.65625 20V16.6916C7.22351 16.7863 6.82526 16.7891 6.38474 16.6592C5.79376 16.4848 5.31357 16.0912 4.95712 15.4909C4.72992 15.1076 4.32724 14.6919 3.90717 14.7224L3.80417 13.5551C4.71252 13.4773 5.49835 14.1086 5.96481 14.8923C6.17203 15.2408 6.41052 15.4451 6.71661 15.5354C7.01248 15.6226 7.33017 15.5807 7.70035 15.45C7.79327 14.7089 8.13278 14.4315 8.38928 14.0408V14.0402C5.78461 13.6517 4.74655 12.2699 4.33456 11.1792C3.7886 9.73099 4.08157 7.92175 5.047 6.77841C5.06577 6.75613 5.09964 6.69784 5.08652 6.6571C4.64386 5.31998 5.18326 4.21387 5.20309 4.09653C5.71396 4.24759 5.79697 3.94455 7.42218 4.93195L7.70309 5.10071C7.82059 5.17075 7.78366 5.13077 7.90115 5.12192C8.57971 4.93759 9.29504 4.83581 9.99985 4.82666C10.71 4.83581 11.4207 4.93759 12.1274 5.12939L12.2183 5.13855C12.2104 5.13733 12.243 5.13275 12.2978 5.1001C14.328 3.87039 14.2551 4.27231 14.7995 4.09531C14.8192 4.2128 15.3514 5.33691 14.9135 6.6571C14.8544 6.83899 16.6736 8.50479 15.6653 11.1787C15.2533 12.2699 14.2154 13.6517 11.6107 14.0402V14.0408C11.9446 14.5497 12.3457 14.8204 12.3436 15.8702V20C16.7111 18.9447 19.9998 14.687 19.9998 10C20 4.50745 15.4926 0 10 0V0Z"/>
</symbol>

<symbol id="telegram" viewBox="0 0 22 16">
<path d="M8.67178 10.5238L8.33433 14.9538C8.81714 14.9538 9.02624 14.7602 9.277 14.5278L11.5406 12.5088L16.231 15.7146C17.0912 16.162 17.6973 15.9264 17.9294 14.976L21.0081 1.51162L21.009 1.51083C21.2818 0.324011 20.5491 -0.140087 19.711 0.151065L1.61407 6.61749C0.378987 7.06493 0.397687 7.70753 1.40411 7.99868L6.03077 9.34178L16.7776 3.06576C17.2833 2.75318 17.7432 2.92613 17.3649 3.2387L8.67178 10.5238Z"/>
</symbol>

<symbol id="facebook" viewBox="0 0 11 22">
<path d="M9.72348 10.9804H6.95018V21.2001H2.74839V10.9804H0.75V7.38881H2.74839V5.06464C2.74839 3.40261 3.53328 0.800049 6.98758 0.800049L10.1 0.813146V4.2994H7.84174C7.47132 4.2994 6.95046 4.48555 6.95046 5.27839V7.39216H10.0906L9.72348 10.9804Z" />
</symbol>


</defs>
</svg>
